<svg version="1.1" viewBox="0.0 0.0 1152.0 864.0" fill="none" stroke="none" stroke-linecap="square" stroke-miterlimit="10" xmlns:xlink="http://www.w3.org/1999/xlink" xmlns="http://www.w3.org/2000/svg"><clipPath id="p.0"><path d="m0 0l1152.0 0l0 864.0l-1152.0 0l0 -864.0z" clip-rule="nonzero"/></clipPath><g clip-path="url(#p.0)"><path fill="#000000" fill-opacity="0.0" d="m0 0l1152.0 0l0 864.0l-1152.0 0z" fill-rule="evenodd"/><path fill="#000000" d="m156.2179 396.47675c0.59614563 0 1.1874847 0.07772827 1.7740173 0.23321533c0.47114563 0.12036133 0.7067108 0.6444702 0.7067108 1.5723267c0 0.73724365 -0.14422607 1.3666687 -0.43267822 1.8882751c-0.7692261 1.1434937 -1.5817108 2.0863953 -2.4374542 2.8286743c-0.85575867 0.73724365 -1.995163 1.5221558 -3.418213 2.3547058c-3.0095673 1.6600647 -5.4902954 2.4901123 -7.4421844 2.4901123c-0.7692261 0 -1.3749847 -0.13790894 -1.817276 -0.41375732c-0.44230652 -0.2758484 -0.66345215 -0.6444702 -0.66345215 -1.105896c0 -0.6168823 0.29325867 -1.2488098 0.87979126 -1.895813c1.4230499 -1.6651001 2.8124542 -3.0593567 4.1681976 -4.1828003c1.3653564 -1.1284485 2.9037933 -2.076355 4.6153107 -2.843689c1.4134369 -0.61691284 2.7691803 -0.925354 4.06723 -0.925354zm1.1538391 -2.956543c-0.4134674 0 -1.2115173 0.07522583 -2.3941956 0.22567749c-1.3557434 0.15548706 -2.596115 0.3887024 -3.7210999 0.699646c-1.1153564 0.30593872 -2.3845673 0.78240967 -3.8076172 1.4293823c-0.99998474 0.43130493 -2.139389 1.0632629 -3.418213 1.895813c-1.2692108 0.83255005 -2.2259216 1.5246582 -2.8701477 2.076355c-0.8845978 0.7121887 -1.6249695 1.4920654 -2.221115 2.3396606c-0.5865326 0.8475952 -0.82211304 1.3942566 -0.7067261 1.6400146c0.11538696 0.33602905 0 0.50405884 -0.34614563 0.50405884c-0.06730652 0.06518555 -0.15864563 0.12036133 -0.2740326 0.16549683c-0.11538696 0.045135498 -0.17308044 0.09277344 -0.17308044 0.14294434c0 0.045135498 0.11538696 0.12786865 0.34614563 0.2482605c0 0.060180664 0.014434814 0.1980896 0.043273926 0.41375732c0.038467407 0.21566772 -0.03364563 0.43130493 -0.21633911 0.64697266c-0.05769348 0.0953064 -0.08653259 0.25076294 -0.08653259 0.46643066c0 0.8927307 0.9759369 1.8782654 2.927826 2.9565735c0.7692261 0.34103394 1.3605652 0.57424927 1.7740173 0.6996155c0.41345215 0.120391846 0.9711304 0.18057251 1.6730499 0.18057251c1.307663 -0.030090332 2.4759216 -0.14544678 3.5047455 -0.34606934c1.0384369 -0.20062256 2.1778412 -0.5316162 3.418213 -0.993042c1.942276 -0.6168823 3.5047455 -1.193634 4.6874237 -1.7302856c1.182663 -0.5416565 2.4518738 -1.3215637 3.8076324 -2.3396606c3.134552 -2.3421936 4.7018433 -4.5138245 4.7018433 -6.5149536c0 -1.2037048 -0.3125 -2.0888977 -0.93748474 -2.6556396c-0.6153717 -0.5717468 -1.7211304 -1.0431824 -3.3172607 -1.4143372c-0.5288391 -0.2758484 -0.9567108 -0.46643066 -1.2836304 -0.5717468c-0.32691956 -0.110321045 -0.6970978 -0.16549683 -1.1105499 -0.16549683zm-32.251305 -13.917603c-1.4807434 0 -2.8845673 0.09277344 -4.211464 0.27835083c-1.3269043 0.18554688 -2.3749619 0.38616943 -3.1441803 0.60183716c-1.2403641 0.37112427 -2.8653336 1.0958557 -4.874916 2.1741638c-2.0095901 1.0782776 -3.8412857 2.327118 -5.495102 3.74646c-1.0576782 0.9529114 -2.3557358 2.3321228 -3.894165 4.137665c-1.5384369 1.8005066 -2.841301 3.5157776 -3.9085922 5.145752c-2.4807281 4.0373535 -3.687439 7.874115 -3.6201324 11.510254c-0.12499237 1.0180969 0.2692337 2.006134 1.1826706 2.9640808c0.9230652 0.9529114 2.182663 1.690155 3.7787857 2.2117615c1.2403641 0.46643066 2.7739944 0.699646 4.6008835 0.699646c2.596115 0 5.5191345 -0.38619995 8.769089 -1.1585388c1.6538162 -0.34106445 3.826851 -1.0883484 6.5191193 -2.2418823c2.6922607 -1.1535339 4.7162704 -2.2243042 6.072014 -3.2123413c3.0672607 -2.4023438 4.870117 -4.205353 5.4085693 -5.4090576c0.23075867 -0.52160645 0.34614563 -1.1209412 0.34614563 -1.7980042c0 -1.419342 -0.91345215 -2.3597107 -2.7403412 -2.8211365c-1.951889 -0.496521 -4.6393433 -0.7447815 -8.062363 -0.7447815c-2.4230423 0 -4.048012 0.09277344 -4.8749237 0.27835083c-0.76921844 0.40124512 -1.1538239 0.78741455 -1.1538239 1.1585388c0 0.24575806 0.20672607 0.53915405 0.6201782 0.8802185c0.5288391 0.15045166 1.1153641 0.2432251 1.7595901 0.27835083c0.6538391 0.030090332 1.5720901 0.045135498 2.7547607 0.045135498c1.7691956 0 3.24514 0.030090332 4.4278107 0.090270996c1.1249847 0 1.6874695 0.30844116 1.6874695 0.9253235c0 0.8927307 -1.3268967 2.6330872 -3.9806976 5.2210083c-1.6538162 1.354126 -3.7258987 2.5628357 -6.2162476 3.6260986c-2.4807281 1.0632629 -4.69223 1.6575623 -6.634506 1.782959c-1.7115021 0.30593872 -3.1585999 0.45889282 -4.3412704 0.45889282c-1.7115097 0 -2.9374466 -0.29840088 -3.677826 -0.89523315c-0.7403717 -0.60183716 -1.1105576 -1.4745178 -1.1105576 -2.6180115c0 -0.92282104 0.17788696 -1.9534912 0.53364563 -3.09198c0.17307281 -0.677063 0.55287933 -1.692688 1.1394043 -3.046814c0.59614563 -1.3591614 1.1297913 -2.4851074 1.6009369 -3.3778381c1.4807434 -2.868805 3.9903107 -5.9206543 7.528717 -9.155548c0.8269119 -0.83255005 2.0095901 -1.7328186 3.5480194 -2.7007751c1.5384369 -0.9729614 2.841301 -1.7052002 3.9085922 -2.1967163c0.7595978 -0.34103394 1.6874695 -0.59432983 2.7836075 -0.75982666c1.0961304 -0.17053223 2.1730347 -0.25579834 3.230713 -0.25579834c1.3653641 0 2.4326553 0.12289429 3.2018661 0.36865234c0.2884674 0.090270996 0.75479126 0.21313477 1.3990173 0.36862183c0.6538391 0.15545654 1.2740173 0.34857178 1.8605499 0.57925415c0.59614563 0.23071289 1.1922913 0.5767822 1.7884369 1.038208c0.35575867 0.2156372 0.7067108 0.32348633 1.0528564 0.32348633c0.59614563 0 1.1730652 -0.21566772 1.7307434 -0.6470032c0.56729126 -0.43130493 0.8220978 -0.79992676 0.7644043 -1.1058655c0 -0.21566772 -0.09133911 -0.41629028 -0.2740326 -0.60183716c-0.17306519 -0.1855774 -0.4230652 -0.40124512 -0.74998474 -0.6470032c-0.32691956 -0.24575806 -0.6105652 -0.46139526 -0.8509369 -0.64697266c-0.4711609 -0.21566772 -1.3845978 -0.48397827 -2.7403412 -0.80496216c-1.3557587 -0.32598877 -2.7451477 -0.5817871 -4.168213 -0.7673645c-0.9999771 -0.12536621 -2.091301 -0.18804932 -3.2739792 -0.18804932z" fill-rule="evenodd"/><path fill="#000000" d="m252.53923 395.13766c0.2980652 0 0.62498474 0.045135498 0.98075867 0.1354065c0.41345215 0.21566772 0.6201782 0.586792 0.6201782 1.1134033c0 0.9830017 -0.7067261 1.9685364 -2.120163 2.956543c-1.4807434 1.0482178 -3.105713 1.5723267 -4.8749084 1.5723267c-0.6538391 0 -1.1874847 -0.13793945 -1.6009369 -0.41375732c-0.41345215 -0.2808838 -0.6201935 -0.6369629 -0.6201935 -1.0682678c-0.046142578 -0.04815674 -0.21537781 -0.07223511 -0.5076752 -0.07223511c-0.07307434 0 -0.15385437 0.0014953613 -0.24230957 0.0045166016c-0.44229126 0.015045166 -0.89901733 0.067718506 -1.370163 0.1579895l1.1538239 -0.9704895c0.7595978 -0.5817871 1.9374695 -1.2488098 3.5335999 -2.0011292c1.5961151 -0.7573242 2.7787933 -1.1836243 3.5480194 -1.2789001c0.71151733 -0.090270996 1.2115173 -0.1354065 1.4999695 -0.1354065zm-1.2403717 -2.2644348c-1.4711151 0 -2.7980194 0.16799927 -3.9806976 0.5040283c-2.067276 0.496521 -4.1056976 1.4544678 -6.11528 2.8738098c-2.0095825 1.4143372 -3.6489868 3.0066833 -4.9181824 4.77713c-1.2692108 1.7704163 -1.9038239 3.3953857 -1.9038239 4.8749084c0 1.4795227 0.8269043 2.7133179 2.4807281 3.701355c1.6538239 0.9830017 3.749939 1.4744873 6.2883606 1.4744873c1.1826782 0 2.4374542 -0.12286377 3.7643585 -0.36862183c1.3365173 -0.24575806 2.120163 -0.4914856 2.3509216 -0.73724365l0.7067261 0c0.53845215 0 1.0720978 -0.1855774 1.6009369 -0.55670166l-0.08654785 0c0.11538696 -0.060180664 0.3509674 -0.13543701 0.7067261 -0.22570801c0.35575867 -0.09527588 0.56248474 -0.14294434 0.6201782 -0.14294434c0.47114563 -0.030090332 1.1778564 -0.3209839 2.120163 -0.87265015c0.9519043 -0.55670166 1.4855499 -0.9579468 1.6009369 -1.2037048c0 -0.34103394 -0.35577393 -0.61938477 -1.0672913 -0.8350525c-0.44386292 -0.13635254 -0.8550415 -0.20455933 -1.2335358 -0.20455933c-0.220047 0 -0.4290619 0.023040771 -0.62701416 0.06915283c-0.11538696 0.090270996 -0.23558044 0.15045166 -0.36058044 0.18054199c-0.115371704 0.030090332 -0.23075867 0.045135498 -0.34614563 0.045135498c-0.17306519 0.065216064 -0.49998474 0.17553711 -0.9807434 0.33102417c-0.47114563 0.15045166 -1.0576782 0.31848145 -1.7595978 0.50405884l0.08654785 0l-0.36058044 0.090270996c-0.6442108 0.24572754 -1.307663 0.4864807 -1.9903412 0.7221985c-0.6826935 0.23071289 -1.4663239 0.42129517 -2.3509216 0.5717468c-0.5288391 0.12539673 -1.3845978 0.18807983 -2.567276 0.18807983c-1.5961304 0 -2.6009216 -0.17053223 -3.0143738 -0.51156616c-0.58651733 -0.4915161 -0.87979126 -1.1384888 -0.87979126 -1.9409485c0 -1.1685791 0.6201935 -2.5854187 1.8605499 -4.250519l0.25961304 -0.36862183l0.6201782 0.36862183c0.59614563 0.46142578 1.4374695 0.8074951 2.524002 1.0381775c1.0961304 0.23071289 2.264389 0.34606934 3.5047455 0.34606934c1.4134369 0 2.596115 -0.1529541 3.5480194 -0.45889282c1.826889 -0.55670166 3.3172455 -1.2262573 4.4710846 -2.008667c1.1538086 -0.78741455 2.0816956 -1.7503357 2.7835999 -2.8888245c0.2980652 -0.61691284 0.44711304 -1.0181274 0.44711304 -1.2037048c0 -0.21566772 -0.08654785 -0.60183716 -0.25961304 -1.1585388c-0.41345215 -0.64697266 -0.8894043 -1.1234436 -1.4278564 -1.4293823c-0.5288391 -0.3109436 -1.2932434 -0.57424927 -2.2932434 -0.789917c-1.4230499 -0.33602905 -2.6970673 -0.5040283 -3.822052 -0.5040283zm-30.298203 -13.406067c-1.5384369 0 -3.0047607 0.10784912 -4.3989716 0.32348633c-1.3845825 0.21566772 -2.4903412 0.44638062 -3.3172455 0.6921387c-1.2403717 0.4012146 -2.8220673 1.1560364 -4.745117 2.2644348c-1.9134369 1.1083984 -3.6393585 2.3872986 -5.1777954 3.836731c-1.0576782 0.9880371 -2.283615 2.392334 -3.677826 4.212921c-1.3845978 1.8155518 -2.5480347 3.5533752 -3.490326 5.21344c-2.0095825 3.545868 -3.0143738 6.936249 -3.0143738 10.171143l0.08653259 1.3842468c0 1.0181274 0.4855652 1.9986267 1.4567108 2.9414978c0.98075867 0.9378662 2.2691956 1.6525574 3.865326 2.1440735c1.1730499 0.4012146 2.6201477 0.60183716 4.341263 0.60183716c2.5384216 0 5.547989 -0.43130493 9.028702 -1.2939453c1.5961304 -0.3711548 3.706665 -1.1560669 6.3316193 -2.3547058c2.6345825 -1.2037048 4.600891 -2.3146057 5.898941 -3.3327332c2.836502 -2.432434 4.4903107 -4.2655334 4.9614563 -5.4993286c0.18269348 -0.5516968 0.2740326 -1.0757751 0.2740326 -1.5722961c0 -1.5397339 -0.9759369 -2.5402832 -2.927826 -3.001709c-1.8941956 -0.43130493 -4.259552 -0.64697266 -7.096039 -0.64697266c-1.2980499 0 -2.4807281 0.040130615 -3.5480194 0.12036133c-1.0576782 0.07522583 -1.8220825 0.17303467 -2.2932281 0.293396c-0.7115326 0.3711548 -1.0672913 0.74227905 -1.0672913 1.1134033c0 0.24575806 0.20672607 0.5541992 0.6201782 0.925354c0.82691956 0.15045166 1.8028564 0.22567749 2.9278412 0.22567749l3.8076324 -0.045135498c0.94229126 0 1.682663 0.015045166 2.221115 0.045135498c0.047454834 -0.0012817383 0.09390259 -0.0019226074 0.13935852 -0.0019226074c1.0224609 0 1.5336914 0.3241272 1.5336914 0.9724121c0 1.0180969 -1.1778717 2.7609253 -3.5335999 5.228485c-1.5961304 1.4143372 -3.5912933 2.6706848 -5.9854736 3.769043c-2.3941956 1.0933533 -4.56723 1.715271 -6.5191193 1.8657227c-1.8269043 0.37112427 -3.3605347 0.55670166 -4.600891 0.55670166c-1.7115173 0 -2.9230347 -0.32348633 -3.634552 -0.970459c-0.7115326 -0.6470032 -1.0672913 -1.5873718 -1.0672913 -2.8211365c0 -0.9529419 0.12019348 -1.8607178 0.3605652 -2.7233582c0.11538696 -0.677063 0.4230652 -1.7001953 0.9230652 -3.069397c0.50961304 -1.3742065 0.9711304 -2.50766 1.3845978 -3.4004211c1.2403564 -2.8988647 3.5431976 -5.9958496 6.908539 -9.290924c0.7019043 -0.83255005 1.7932281 -1.7503662 3.2739716 -2.7534485c1.4807434 -1.0030518 2.7499542 -1.7653809 3.8076324 -2.2869873c0.7692261 -0.34106445 1.745163 -0.61187744 2.9278412 -0.8125c1.182663 -0.20062256 2.336502 -0.30090332 3.4614716 -0.30090332c1.1826782 0 2.1249695 0.09277344 2.826889 0.27835083c0.35575867 0.09527588 0.85575867 0.2206726 1.4999695 0.37612915c0.6538391 0.15048218 1.2740173 0.3335266 1.8605499 0.54919434c0.59614563 0.21566772 1.192276 0.53915405 1.7884216 0.970459c0.2884674 0.1855774 0.63941956 0.27835083 1.0528717 0.27835083c0.6538391 0 1.2451782 -0.2156372 1.7740173 -0.64697266c0.53845215 -0.43130493 0.7451782 -0.7999573 0.6201782 -1.105896c0 -0.2156372 -0.105773926 -0.41625977 -0.31730652 -0.60183716c-0.20191956 -0.18554688 -0.4663391 -0.39370728 -0.79325867 -0.62438965c-0.31729126 -0.23071289 -0.59614563 -0.43884277 -0.83651733 -0.62442017c-0.5288391 -0.21566772 -1.4759369 -0.4689331 -2.8413086 -0.75982666c-1.3557434 -0.29589844 -2.7691803 -0.52160645 -4.2403107 -0.677063c-1.0095978 -0.09030151 -1.9566956 -0.13543701 -2.8412933 -0.13543701z" fill-rule="evenodd"/><path fill="#000000" d="m282.40604 385.29c-0.58654785 0 -1.0865173 0.1078186 -1.5 0.32348633c-0.5961304 0.24575806 -1.1009216 0.5466614 -1.5143738 0.902771c-0.41345215 0.3560791 -0.67788696 0.57925415 -0.7932739 0.66952515c-0.58651733 0.4915161 -1.0720825 0.9303589 -1.4566956 1.3165588c-0.38461304 0.38616943 -0.6682434 0.6720276 -0.85095215 0.857605c-0.28845215 0.30593872 -0.5961609 0.6444702 -0.9230652 1.015625c-0.3269043 0.37112427 -0.6105652 0.6795654 -0.85095215 0.9253235c-0.23074341 0.37112427 -0.64419556 0.6168823 -1.2403564 0.73724365c-0.88461304 0.0953064 -2.2115173 0.14294434 -3.980713 0.14294434c-0.76919556 0 -1.2403564 -0.017547607 -1.4134216 -0.052642822c-0.2980652 0 -0.7019043 0.17803955 -1.2115173 0.53411865c-0.5 0.35610962 -0.75 0.65701294 -0.75 0.902771c0 0.15548706 0.13461304 0.32598877 0.4038391 0.51156616c0.26922607 0.18054199 0.6105652 0.28588867 1.0240173 0.315979l3.5335999 0.51156616l-2.3797607 2.6781921l-1.2403564 1.8506775l-1.6009521 2.4524841c-0.24035645 0.4915161 -0.43267822 1.1384888 -0.5769043 1.9409485c-0.14422607 0.8024597 -0.21633911 1.5723267 -0.21633911 2.3095703c0 0.92282104 0.11538696 1.4318848 0.34613037 1.5271912c0.05770874 0.030090332 0.14425659 0.08526611 0.25961304 0.16549683c0.125 0.07522583 0.1875 0.14294434 0.1875 0.203125c0.2980652 0.4915161 0.9326782 1.0231323 1.9038086 1.5948792c0.9711609 0.5717468 1.9326782 0.902771 2.8845825 0.993042c0.8269043 0.090270996 1.7115173 0.1354065 2.6538086 0.1354065c3.4230042 0 6.85083 -0.5692444 10.283478 -1.7077332c1.6538086 -0.4914856 2.687439 -0.92282104 3.1009216 -1.2939453c0.41345215 -0.3711548 0.6201782 -0.8024597 0.6201782 -1.2939758c-0.35577393 -0.4914856 -0.7692261 -0.73724365 -1.240387 -0.73724365c-0.24035645 0 -0.44708252 0.09277344 -0.6201782 0.27835083c-0.18267822 0.060180664 -0.49517822 0.16049194 -0.9374695 0.30093384c-0.44229126 0.1354065 -0.92785645 0.28085327 -1.4567261 0.4363098c-0.8845825 0.2758484 -2.2163086 0.6143799 -3.9951172 1.015625c-1.4711304 0.21566772 -3.2114868 0.32348633 -5.2210693 0.32348633c-1.4134216 0 -2.418213 -0.09277344 -3.0143738 -0.27835083c-0.58651733 -0.1855774 -0.87979126 -0.5090637 -0.87979126 -0.970459c0 -0.120391846 0.05770874 -0.428833 0.17306519 -0.925354c0.7692261 -2.5879211 1.9519043 -5.113159 3.5480347 -7.5756836c0.23077393 -0.1855774 0.75961304 -0.72473145 1.5865173 -1.6174622c0.6538391 -0.6168823 1.0672913 -0.9729614 1.2403564 -1.0682678c0.24038696 -0.2758484 0.46151733 -0.473938 0.66345215 -0.59432983c0.21151733 -0.12536621 0.55285645 -0.21817017 1.0240173 -0.27835083c0.4711609 -0.06518555 0.92785645 -0.10531616 1.3701782 -0.12036133c0.44229126 -0.015045166 0.8413086 -0.02255249 1.1970825 -0.02255249c2.0095825 0 3.9614868 -0.07775879 5.8556824 -0.23321533c1.9422607 0 3.1922607 -0.045135498 3.749939 -0.13543701c0.56729126 -0.090270996 0.85095215 -0.35107422 0.85095215 -0.78237915c0 -0.25076294 -0.028869629 -0.46643066 -0.08654785 -0.64697266c-0.17306519 -0.8977661 -1.2932434 -1.3466492 -3.3605042 -1.3466492c-0.2980957 0 -0.8605652 0.03262329 -1.6875 0.09780884c-1.9518738 0.1855774 -3.341278 0.27835083 -4.1681824 0.27835083c-0.7692261 0 -1.1538391 -0.1078186 -1.1538391 -0.32348633c0 -0.21566772 0.2980652 -0.5241089 0.8942261 -0.9253235c0.28845215 -0.31097412 0.78845215 -0.7748718 1.4999695 -1.3917847c0.24038696 -0.2156372 0.5192261 -0.4689331 0.83651733 -0.75982666c0.3269348 -0.29089355 0.6682739 -0.6218872 1.0240173 -0.993042c0.4711609 -0.4012146 0.7067261 -0.66452026 0.7067261 -0.789917c0 -0.12036133 -0.105773926 -0.25827026 -0.31729126 -0.41375732c-0.20193481 -0.15548706 -0.3605652 -0.27835083 -0.47595215 -0.36862183c-0.94229126 -0.40124512 -1.7115173 -0.60183716 -2.3076477 -0.60183716z" fill-rule="evenodd"/><path fill="#000000" d="m282.75943 439.92227c2.0095825 0 3.605713 0.15298462 4.788391 0.45892334c1.8365173 0.37112427 3.134552 0.7798767 3.894165 1.2262573c0.7692261 0.4463501 1.4230652 1.0858154 1.9615173 1.9183655c0 0.677063 -0.076934814 1.1484985 -0.23077393 1.4143372c-0.14422607 0.26080322 -0.57211304 0.7447815 -1.2836304 1.4519348c-0.6442261 0.7723694 -1.8557434 1.6124268 -3.634552 2.5202026c-1.7691956 0.9078064 -2.980713 1.3917847 -3.634552 1.4519653c-0.11538696 0.06518555 -0.33654785 0.19058228 -0.66345215 0.37615967c-0.3269348 0.18054199 -0.72595215 0.3334961 -1.197113 0.45889282c-0.94229126 0.33602905 -1.7836304 0.6143799 -2.5239868 0.8350525c-0.74038696 0.21566772 -1.9951477 0.4915161 -3.7643738 0.82754517c-0.94229126 0.37112427 -1.7403564 0.55670166 -2.394165 0.55670166c-0.58654785 0 -0.9711304 -0.15548706 -1.1538391 -0.46643066c0 -0.21566772 1.1249695 -1.6475525 3.374939 -4.2956543c0.58651733 -0.8626404 1.2644043 -1.7102356 2.0336304 -2.5427856c1.0672913 -1.3842468 1.6009216 -2.1691284 1.6009216 -2.3547058c0.35577393 -0.34103394 0.5336609 -0.7121887 0.5336609 -1.1134033c0 -0.33602905 -0.105773926 -0.7272339 -0.31732178 -1.1736145c-0.2019043 -0.4463501 -0.33651733 -0.7623291 -0.4038391 -0.9479065c-0.23074341 -0.18554688 -0.03845215 -0.33099365 0.5769348 -0.4363098c0.6249695 -0.11035156 1.4374695 -0.16552734 2.437439 -0.16552734zm-166.41605 -1.2488098c1.4230499 0 2.5768738 0.26080322 3.4614792 0.78237915c0.47114563 0.28085327 0.8845978 0.70718384 1.2403641 1.2789307c0.35575867 0.56674194 0.5624924 1.1109009 0.6201782 1.6325073l0.08654022 3.0091858c0 1.0181274 -0.1057663 1.8883057 -0.3172989 2.6105042c-0.20191956 0.722229 -0.6297989 1.7303162 -1.283638 3.0242615c-1.1153641 2.0362244 -2.057663 3.5483704 -2.8268738 4.536377c-0.76921844 0.9830322 -1.6442032 1.8306274 -2.6249542 2.5427856c-0.97114563 0.70718384 -2.6057358 1.7528687 -4.9037704 3.1371155c-2.663414 1.6049194 -4.8989487 2.7534485 -6.7066193 3.4455566c-1.7980423 0.69210815 -3.7018585 1.1008606 -5.711441 1.2262573c-0.2307663 0.030090332 -0.55287933 0.045135498 -0.9663315 0.045135498c-0.71152496 0 -1.3942108 -0.07772827 -2.0480423 -0.23321533c-0.64421844 -0.15548706 -1.1153564 -0.35610962 -1.4134369 -0.60183716c-0.2307663 -0.21566772 -0.49518585 -0.4237976 -0.79325867 -0.62442017c-0.2980652 -0.20062256 -0.4903717 -0.37615967 -0.5769119 -0.5266113c-0.08653259 -0.15548706 -0.12980652 -0.3711548 -0.12980652 -0.64697266l0.17307281 -1.5723267c0.11538696 -1.3240356 0.64421844 -2.9715881 1.5865173 -4.942627c0.9519043 -1.9760437 2.0480423 -3.811676 3.2884064 -5.5068665c1.2403641 -1.6951904 2.3605347 -2.818634 3.3605194 -3.3703308c0.18268585 -0.12536621 0.30287933 -0.26330566 0.36057281 -0.41375732c0.05769348 -0.15548706 0.08653259 -0.2482605 0.08653259 -0.27835083c0 -0.37112427 0.87018585 -1.1811218 2.6105347 -2.4299316c1.7499771 -1.2488403 3.7162933 -2.4650574 5.898941 -3.6486816c2.182663 -1.1886292 3.8364792 -1.9058228 4.9614563 -2.1515808c0.8269119 -0.21566772 1.6826706 -0.32348633 2.5672684 -0.32348633zm55.389793 -1.986084c-0.24038696 0.090270996 -0.8605652 0.1354065 -1.8605499 0.1354065c-0.2980652 0.030090332 -0.65382385 0.045135498 -1.0672913 0.045135498c-0.41345215 0 -0.8845978 0.032592773 -1.4134369 0.09780884c-0.6538391 -0.0953064 -1.5095825 -0.14294434 -2.5672607 -0.14294434c-0.7692261 0 -1.7307434 0.02508545 -2.8845673 0.07522583c-1.1538239 0.045135498 -1.9663086 0.08276367 -2.4374542 0.112854004c-2.9518738 0.33602905 -5.01915 0.50405884 -6.201828 0.50405884c-0.7692108 0 -1.2740173 -0.092803955 -1.5144043 -0.27838135c-0.34614563 -0.27581787 -0.93266296 -0.41375732 -1.7595825 -0.41375732c-0.41345215 0 -0.7692108 0.04763794 -1.0672913 0.14294434c-0.2980652 0.090270996 -0.44709778 0.21313477 -0.44709778 0.36862183c0 0.15045166 -0.38461304 0.36611938 -1.1538391 0.64697266c-0.13212585 -0.02420044 -0.30274963 -0.036315918 -0.51182556 -0.036315918c-0.3538208 0 -0.81781006 0.03466797 -1.391983 0.104034424c-0.9134369 0.10531616 -1.6345825 0.19058228 -2.1634216 0.25579834l-3.4614868 0.41375732c-0.8845978 0.030090332 -1.6105499 0.20812988 -2.1778412 0.53411865c-0.5576935 0.3209839 -0.8942261 0.7297363 -1.0095978 1.2262573c0 0.43133545 0.56248474 0.6470032 1.6874695 0.6470032l0.6201782 0c0.17308044 -0.035125732 0.4375 -0.06021118 0.79325867 -0.07525635c0.35575867 -0.015045166 0.8845978 -0.052642822 1.5865173 -0.11282349c1.4230499 -0.030090332 2.3701477 -0.07522583 2.8412933 -0.13543701c0.11538696 0 0.17308044 0.06271362 0.17308044 0.18807983c0 0.120391846 -0.09135437 0.33602905 -0.27404785 0.6470032c-0.17306519 0.30593872 -0.28845215 0.5190735 -0.34614563 0.6394348l-1.0528564 1.5723267l-3.3749542 5.040436c-0.94229126 1.0783081 -1.826889 1.8005066 -2.6537933 2.166626c-0.29808044 0.15548706 -0.50961304 0.29592896 -0.63461304 0.42129517c-0.11538696 0.12036133 -0.17306519 0.24325562 -0.17306519 0.36862183l0.10095215 0.45892334c-0.06730652 0.09527588 -0.24519348 0.4187622 -0.53364563 0.970459c-0.05769348 0.12539673 -0.20672607 0.3887024 -0.44709778 0.789917c-0.24038696 0.4012146 -0.5673065 0.7849121 -0.98075867 1.1510315c-0.99998474 1.0481873 -2.1345825 2.6054688 -3.4037933 4.671814c-1.2692108 2.0663147 -2.139389 3.6536865 -2.6105347 4.7620544c-0.35575867 0.5516968 -0.53364563 0.9529114 -0.53364563 1.2037048c0 0.18054199 0.10095978 0.3334961 0.30287933 0.45889282c0.21154022 0.12539673 0.5240402 0.27835083 0.9374924 0.45892334c0.2980652 0.18554688 0.66825867 0.32348633 1.1105499 0.41375732c0.44230652 0.09527588 0.8413391 0.14294434 1.1970978 0.14294434c0.41345215 0 0.6201782 -0.045135498 0.6201782 -0.13543701c0.11538696 -0.06518555 0.23077393 -0.20562744 0.3461609 -0.42126465c0.115371704 -0.21566772 0.20672607 -0.3836975 0.2740326 -0.50405884c0.23075867 -0.7071533 0.5528717 -1.3391113 0.96632385 -1.895813c0 -0.55670166 1.0336456 -2.251892 3.1009064 -5.0855713c2.067276 -2.8336792 3.634552 -4.744507 4.7018433 -5.732544c0 -0.21566772 0.10096741 -0.39871216 0.30288696 -0.54919434c0.2115326 -0.15545654 0.375 -0.2482605 0.4903717 -0.27835083c0.47114563 0.06021118 2.0095825 0.09030151 4.6153107 0.09030151c4.9614563 0 8.740234 -0.06271362 11.3363495 -0.18807983c2.7788086 -0.15048218 4.7114563 -0.28588867 5.797989 -0.40625c1.0961304 -0.12539673 1.7355347 -0.2984314 1.9182281 -0.519104c0.11538696 -0.12036133 0.17308044 -0.25827026 0.17308044 -0.41375732c0 -0.2758484 -0.13461304 -0.5817871 -0.4038391 -0.91781616c-0.25961304 -0.34103394 -0.5673065 -0.57424927 -0.9230652 -0.699646c-0.10194397 -0.022247314 -0.27404785 -0.03338623 -0.5162964 -0.03338623c-0.7402191 0 -2.1353912 0.10391235 -4.185547 0.31173706c-5.0768433 0.24575806 -9.153702 0.36865234 -12.230576 0.36865234c-2.1249542 0 -3.5431976 -0.060180664 -4.25473 -0.18057251c0.18269348 -0.15545654 0.9230652 -1.125946 2.221115 -2.9114075c0.29808044 -0.37112427 0.8894043 -1.1484985 1.7740173 -2.3321228c0.8845978 -1.1886597 1.504776 -1.9234009 1.8605347 -2.2042542c0.47114563 -0.70718384 0.99998474 -1.2914734 1.5865173 -1.7528687c0.59614563 -0.46142578 1.0432434 -0.6921387 1.3413239 -0.6921387c0.23075867 -0.030090332 0.8028717 -0.1078186 1.7163239 -0.23321533c0.9230499 -0.12536621 1.9134216 -0.20309448 2.9710999 -0.23321533c4.31723 -0.30593872 7.716217 -0.45889282 10.196945 -0.45889282c1.6538239 0 3.6009064 0.07772827 5.8412476 0.23321533c0.8269043 0.020050049 1.549118 0.030090332 2.166626 0.030090332c0.3087616 0 0.5913391 -0.0025024414 0.8477478 -0.007507324c0.7692108 -0.015045166 1.2547913 -0.06021118 1.4567108 -0.13543701c0.2115326 -0.08023071 0.34614563 -0.21313477 0.4038391 -0.39871216c0.2980652 -0.46139526 0.0048065186 -0.81500244 -0.87979126 -1.0607605c-0.18269348 -0.09527588 -0.3461609 -0.16549683 -0.49038696 -0.21063232c-0.04069519 -0.01272583 -0.078323364 -0.02368164 -0.11289978 -0.032806396l0 0c0.046417236 -0.032562256 0.06964111 -0.08932495 0.06964111 -0.1703186c0 -0.09527588 -0.09135437 -0.20562744 -0.2740326 -0.33102417c-0.23077393 -0.090270996 -0.49519348 -0.16549683 -0.79325867 -0.22567749c-0.29808044 -0.065216064 -0.78845215 -0.12036133 -1.4711304 -0.16549683c-0.6730652 -0.045135498 -1.2740173 -0.09780884 -1.8028564 -0.1579895zm39.342834 -1.8506775c0 0.12539673 -0.38459778 0.18807983 -1.1538239 0.18807983l-2.221115 -0.09780884c-0.5570526 -0.002960205 -1.0927124 -0.004425049 -1.6069794 -0.004425049c-4.7140503 0 -7.6302643 0.12435913 -8.748627 0.3730774c-0.068496704 -0.011291504 -0.16810608 -0.016937256 -0.29881287 -0.016937256c-0.21784973 0 -0.52207947 0.015655518 -0.91270447 0.047027588c-0.6153717 0.045135498 -1.1009369 0.082733154 -1.4566956 0.11282349l-0.7067261 0c-0.41345215 0 -0.6201782 0.07775879 -0.6201782 0.23321533c-0.23077393 0.120391846 -1.0432587 0.29592896 -2.4374542 0.5266113c-1.3845978 0.23071289 -2.4903564 0.3611145 -3.3172607 0.39120483c-1.1826782 0.035125732 -2.2499542 0.13793945 -3.2018738 0.30844116c-0.94229126 0.16552734 -1.5288086 0.3109436 -1.7595825 0.43634033c-0.47114563 0.24575806 -0.8845978 0.36862183 -1.2403564 0.36862183l-0.1875 0c-0.061813354 -0.006439209 -0.12120056 -0.009674072 -0.17816162 -0.009674072c-0.20883179 0 -0.38502502 0.04336548 -0.52856445 0.13006592c-0.17306519 0.10531616 -0.25961304 0.23321533 -0.25961304 0.383667c0 0.28085327 0.23558044 0.54415894 0.7067261 0.789917c0.11538696 0.15548706 0.25961304 0.26330566 0.43267822 0.32348633c0.18269348 0.060180664 0.42308044 0.090270996 0.72114563 0.090270996c0.41345215 0 0.97595215 -0.045135498 1.6874695 -0.1354065c0.26441956 0.015045166 0.5288391 0.022583008 0.79325867 0.022583008c0.26441956 0 0.5288391 -0.007537842 0.79325867 -0.022583008c0.5288391 -0.030090332 0.85575867 -0.062683105 0.98075867 -0.09780884c0.7019043 -0.060180664 1.1442108 -0.090270996 1.326889 -0.090270996c0.35577393 0 0.53364563 0.062683105 0.53364563 0.18807983c0 0 -0.12017822 0.1529541 -0.3605652 0.45889282c0 0.0953064 -0.23558044 0.58932495 -0.7067261 1.4820557c0 0.30593872 -0.3269043 1.0306396 -0.9807434 2.1741638c-1.0576782 1.0431824 -2.0288086 2.2894897 -2.9134216 3.738922c-0.8845978 1.4494629 -1.3605499 2.4048767 -1.4278564 2.8663025c0.06730652 0.2758484 -0.4038391 0.6218872 -1.4134369 1.0381775c-0.99998474 0.41625977 -2.004776 0.7171936 -3.0143738 0.9027405c-0.47114563 0.030090332 -0.78364563 0.10784912 -0.93748474 0.23321533c-0.14422607 0.12539673 -0.24519348 0.35610962 -0.3028717 0.6921387c0 0.46139526 0.057678223 0.7397461 0.17306519 0.8350525c0.125 0.090270996 0.53845215 0.16549683 1.2403717 0.22567749l1.3413239 -0.090270996l-0.1875 1.1585388c0 0.120391846 -0.014419556 0.32852173 -0.043273926 0.62442017c-0.028839111 0.29089355 -0.15864563 0.46643066 -0.38941956 0.5266113c-0.2403717 0 -0.7019043 0.8175049 -1.3845825 2.4525146c-0.6730652 1.6350098 -1.2788239 3.453064 -1.817276 5.454193l-0.7067261 2.1741638l1.3269043 0.82754517c1.0672913 0.496521 1.9566956 0.7447815 2.6682281 0.7447815c0.99998474 0 1.942276 -0.53915405 2.8268738 -1.6174622c1.5961304 -1.0482178 2.4230347 -1.6801453 2.4807281 -1.895813c-0.11538696 -0.28085327 -0.26441956 -0.5215759 -0.44711304 -0.7221985c-0.17306519 -0.20062256 -0.37498474 -0.30093384 -0.60575867 -0.30093384c-0.125 0 -0.21633911 0.017547607 -0.2740326 0.05267334c-0.41345215 -0.035125732 -0.91345215 -0.20565796 -1.4999695 -0.51156616c-0.24038696 -0.15548706 -0.110580444 -0.8175049 0.3894043 -1.986084c0.50961304 -1.173584 1.1490326 -2.4073792 1.9182434 -3.7013245c0.23075867 -0.33605957 0.375 -0.68963623 0.43267822 -1.0607605c0.05769348 -0.37112427 0.08654785 -0.60183716 0.08654785 -0.69210815c0 -0.12539673 0.043258667 -0.23321533 0.12980652 -0.32351685c0.09614563 -0.09527588 0.25961304 -0.18804932 0.4903717 -0.27835083c0.06730652 -0.030090332 0.17308044 -0.10531616 0.31730652 -0.22567749c0.14422607 -0.12539673 0.21633911 -0.23571777 0.21633911 -0.33102417c0 -0.46139526 0.17788696 -0.69210815 0.53364563 -0.69210815c0.07307434 0.012054443 0.17384338 0.018066406 0.30230713 0.018066406c0.19268799 0 0.4476776 -0.013549805 0.76498413 -0.040649414c0.5288391 -0.045135498 0.8845978 -0.06768799 1.0672913 -0.06768799c0.17306519 -0.060180664 0.59614563 -0.112854004 1.2692108 -0.1579895c0.6826782 -0.0501709 1.1730499 -0.1354065 1.4711304 -0.25579834c0.5288391 0.03012085 1.2692108 0.045166016 2.221115 0.045166016c1.5961304 0 2.8941803 -0.15548706 3.894165 -0.46643066c0.5865326 -0.15048218 1.3269043 -0.22570801 2.221115 -0.22570801c0.41345215 0 0.7067261 0.015045166 0.87979126 0.045135498l2.7547607 -0.51156616c0.34614563 -0.15545654 0.5192261 -0.46392822 0.5192261 -0.9253235c0 -0.7071533 -0.35095215 -1.3065186 -1.0528717 -1.7980042c-0.8269043 -0.1855774 -1.3605499 -0.27835083 -1.6009369 -0.27835083c-0.17306519 0 -0.6153717 0.07522583 -1.326889 0.22567749c-0.35577393 0.065216064 -1.0047913 0.1579895 -1.9470825 0.27835083c-1.2980652 0.12539673 -2.1538239 0.2482605 -2.567276 0.36865234c-0.41345215 0.035095215 -0.9326782 0.060180664 -1.557663 0.07522583c-0.6153717 0.015045166 -0.9230652 0.06768799 -0.9230652 0.1579895l0 0.045135498c-0.59614563 -0.060180664 -1.1874695 -0.09030151 -1.7740021 -0.09030151c-0.59614563 0.15548706 -1.0720978 0.23321533 -1.4278717 0.23321533c-0.28845215 0 -0.49517822 -0.015045166 -0.6201782 -0.045135498c-0.28845215 0.15048218 -0.5240326 0.22570801 -0.7067108 0.22570801c-0.17308044 0 -0.2884674 -0.15298462 -0.34614563 -0.45892334c0.58651733 -0.4914856 1.2067108 -1.2011719 1.8605347 -2.1289978c0.17308044 -0.46142578 0.6153717 -1.1384888 1.3269043 -2.0312195l0.79325867 -1.1585693c1.2403564 -1.6600647 1.9759216 -2.7132874 2.2066956 -3.159668c0.2403717 -0.4513855 0.33172607 -0.98550415 0.2740326 -1.6023865c0.05769348 -0.2758484 0.11538696 -0.5291443 0.17306519 -0.75982666c0.06730652 -0.23071289 0.15866089 -0.34606934 0.27404785 -0.34606934l0.08653259 0c0.17306519 0 0.40864563 -0.037628174 0.7067108 -0.112854004c0.29808044 -0.08023071 0.5048065 -0.1354065 0.6201935 -0.16549683c0.2403717 -0.090270996 0.66825867 -0.16552734 1.2836304 -0.22570801c0.62498474 -0.06518555 1.1153564 -0.12786865 1.4711304 -0.18804932l1.0528564 0.045135498c0.95191956 0 1.870163 -0.06271362 2.7547607 -0.18807983c0.23136902 0.015350342 0.4857483 0.023040771 0.76312256 0.023040771c0.35662842 0 0.75128174 -0.0126953125 1.1839752 -0.038085938c0.7692108 -0.0501709 1.389389 -0.07522583 1.8605347 -0.07522583c0.24038696 -0.03012085 0.6826782 -0.045166016 1.3269043 -0.045166016c1.4807434 0 3.447052 0.07022095 5.898941 0.21066284c2.451889 0.1354065 4.3556976 0.25076294 5.711441 0.34606934l2.3941956 0.41375732l-0.3605652 -1.0607605c-0.05769348 -0.8626404 -0.51441956 -1.4720154 -1.3701782 -1.8280945c-0.85575867 -0.3560791 -2.3172607 -0.564209 -4.3845367 -0.62442017c-0.82691956 -0.12036133 -1.6105499 -0.21063232 -2.3509216 -0.270813c-0.7403717 -0.065216064 -1.1970978 -0.09780884 -1.3701782 -0.09780884zm70.26999 1.6625977c-1.1826782 0 -2.1874695 0.09277344 -3.0143738 0.27835083c-1.0672913 0.15548706 -2.3557434 0.46392822 -3.865326 0.9253235c-1.4999695 0.46142578 -2.2499695 0.76986694 -2.2499695 0.925354c0.05770874 0.12036133 0.20193481 0.31344604 0.43267822 0.57925415c0.24038696 0.26080322 0.53845215 0.49905396 0.8942261 0.71469116c0.35577393 0.15048218 0.71151733 0.31848145 1.0672913 0.50405884c0.35577393 0.1855774 0.64901733 0.27835083 0.87979126 0.27835083c0.24038696 0 0.48077393 -0.045135498 0.7211609 -0.1354065l0.25958252 0c0 0.37112427 -0.23556519 0.8475647 -0.70669556 1.4293518c-0.05770874 0.065216064 -0.44232178 0.48147583 -1.1538391 1.2488403c-1.1249695 1.3892517 -2.0720825 2.4073792 -2.8413086 3.0543518c-1.4134216 1.7252808 -2.5335999 3.1496277 -3.3605042 4.2730713c-0.8269043 1.1234436 -1.3269043 1.825592 -1.4999695 2.1064453c0 0.24575806 -0.35577393 0.58428955 -1.0672913 1.015625c-0.35577393 0.12036133 -0.5817261 0.25076294 -0.67788696 0.39120483c-0.086517334 0.14041138 -0.12979126 0.24072266 -0.12979126 0.30090332l-0.43270874 0.23321533c0 0.090270996 -0.23556519 0.1354065 -0.70669556 0.1354065l0 0.6470032c-0.06732178 0.18554688 -0.1730957 0.49401855 -0.31732178 0.9253235c-0.14422607 0.43130493 -0.33651733 0.8927307 -0.5769043 1.3842468c-0.2980652 0.5266113 -0.6826782 1.0281372 -1.1538391 1.5046082c-0.47113037 0.47644043 -0.7355652 0.7447815 -0.7932434 0.80496216c-0.17306519 0.21566772 -0.39422607 0.53915405 -0.66345215 0.970459c-0.26922607 0.43133545 -0.49038696 0.7096863 -0.66345215 0.8350525c-0.18267822 0.1855774 -0.40863037 0.41629028 -0.67785645 0.6921387c-0.25961304 0.2758484 -0.3894348 0.46139526 -0.3894348 0.55670166c0 0.090270996 -0.076934814 0.22817993 -0.23077393 0.41375732c-0.14422607 0.1855774 -0.21633911 0.34106445 -0.21633911 0.46643066c0.06732178 0.090270996 0.052886963 0.21316528 -0.043273926 0.36862183c-0.086517334 0.15548706 -0.12979126 0.30844116 -0.12979126 0.45892334c0 0.4012146 -0.057678223 0.60183716 -0.17306519 0.60183716c-0.41345215 0.1855774 -0.6201782 0.49401855 -0.6201782 0.9253235c0 0.21566772 0.07211304 0.39871216 0.21633911 0.54919434c0.15383911 0.15545654 0.34613037 0.23321533 0.5769043 0.23321533c0.057678223 0 0.10095215 0.015045166 0.12979126 0.045135498c0.028869629 0.035095215 0.043273926 0.09777832 0.043273926 0.18807983c0 0.15545654 0.07211304 0.27835083 0.21633911 0.36862183c0.15383911 0.09527588 0.35095215 0.14294434 0.5913391 0.14294434c0.21783447 0.028015137 0.43615723 0.042022705 0.6549072 0.042022705c0.4861145 0 0.97454834 -0.06918335 1.465271 -0.20755005c0.71151733 -0.20059204 1.0672913 -0.4237976 1.0672913 -0.66955566c-0.05770874 -0.090270996 0.07211304 -0.2432251 0.3894043 -0.45889282c0.3269043 -0.21566772 0.55285645 -0.43133545 0.67788696 -0.64697266c0.17306519 -0.40124512 0.25958252 -0.8024597 0.25958252 -1.2037048c0 -0.12536621 0.043273926 -0.25576782 0.12982178 -0.39117432c0.08654785 -0.1404419 0.12979126 -0.25579834 0.12979126 -0.34606934l0 -0.09780884c0.2980957 0 0.47595215 -0.052642822 0.5336609 -0.15795898c0.057678223 -0.11035156 0.08654785 -0.3486023 0.08654785 -0.71469116c0 -0.065216064 0.13461304 -0.29592896 0.4038391 -0.6921387c0.26919556 -0.4012146 0.46151733 -0.7572937 0.5769043 -1.0682678l1.5144043 -1.7077332c0.17306519 0 0.30285645 -0.045135498 0.3894043 -0.1354065c0.08654785 -0.0953064 0.14422607 -0.24325562 0.17306519 -0.44384766c0.038482666 -0.20062256 0.05770874 -0.33102417 0.05770874 -0.39120483c0.47113037 -0.586792 0.8076782 -0.9328613 1.0095825 -1.0381775c0.21154785 -0.11035156 0.6682739 -0.16549683 1.3701782 -0.16549683l0.8942261 -0.045166016c0.41345215 0 0.7211304 0.07775879 0.9230652 0.23321533c0.21151733 0.15048218 0.4663086 0.519104 0.7644043 1.105896c1.2980347 1.6350098 2.918213 3.09198 4.860504 4.37088c1.9518738 1.2789307 4.0335693 2.2569275 6.2450867 2.9339905c1.874054 0.57128906 3.6522827 0.8569031 5.3346863 0.8569031c0.31155396 0 0.619812 -0.009765625 0.9248047 -0.02935791c1.0 -0.03012085 1.7932434 -0.30593872 2.3797607 -0.82754517c0.5961609 -0.5266113 0.8942261 -1.0958557 0.8942261 -1.7077332l-0.17306519 -0.9253235c-0.05770874 0 -0.25 -0.030090332 -0.5769043 -0.090270996c-0.3269348 -0.065216064 -0.6682739 -0.09780884 -1.0240479 -0.09780884c-1.2403564 0.060180664 -1.8605347 0.1529541 -1.8605347 0.27835083c0.032226562 0.12042236 -0.101989746 0.18063354 -0.4026184 0.18063354c-0.23770142 0 -0.57943726 -0.037628174 -1.025238 -0.11291504c-1.0 -0.17053223 -2.0865173 -0.4564209 -3.259552 -0.8576355c-0.35577393 -0.24575806 -0.75479126 -0.43634033 -1.197113 -0.5717468c-0.44229126 -0.1404419 -0.7836304 -0.21066284 -1.0240173 -0.21066284c-0.17306519 0 -0.9711304 -0.5541992 -2.3941956 -1.6625671c-1.4134216 -1.1083984 -2.2980347 -1.9259033 -2.6538086 -2.4525146l-0.17306519 -0.8802185c0 -0.24572754 0.20672607 -0.5692444 0.6201782 -0.970459c0.1730957 -0.15045166 0.3605652 -0.2482605 0.5625 -0.293396c0.21151733 -0.0501709 0.55285645 -0.07522583 1.0240173 -0.07522583c0.6538391 -0.030090332 1.9807434 -0.35357666 3.980713 -0.9704895c2.0095825 -0.6168823 3.0143738 -0.970459 3.0143738 -1.06073l0.8076782 0c0.5288391 0 1.5144043 -0.39120483 2.956665 -1.173584c1.4519043 -0.78741455 2.8701477 -1.7052307 4.2547607 -2.7534485c1.3941956 -1.0482178 2.355713 -1.9434509 2.884552 -2.68573c0.47113037 -0.8927307 0.7067261 -1.7854614 0.7067261 -2.6781921c0 -1.2337646 -0.35095215 -2.189209 -1.052887 -2.866272c-1.0095825 -1.0482178 -2.447052 -1.9885864 -4.3124084 -2.8211365c-1.8557434 -0.83255005 -3.730713 -1.3566589 -5.6249084 -1.5723267c-2.2403564 -0.2758484 -4.187439 -0.41375732 -5.8412476 -0.41375732zm-32.43567 -0.41375732c-1.5384369 0 -2.9278412 0.030090332 -4.1681976 0.090270996c-1.2403717 0.060180664 -2.0336304 0.1529541 -2.379776 0.27835083c-1.5384369 0.060180664 -3.168213 0.21566772 -4.8893433 0.46643066c-1.7115021 0.24575806 -3.115326 0.5065613 -4.2114716 0.78237915c-1.0865173 0.2758484 -1.5384216 0.5065613 -1.3557434 0.6921387c-0.65382385 0.37112427 -1.2740173 0.9253235 -1.8605347 1.6625977c-0.48077393 1.1083679 -2.6105347 3.4053955 -6.389328 6.891083c-0.23075867 0.36611938 -0.5528717 0.6896057 -0.96632385 0.970459c-0.41345215 0.2758484 -0.6538391 0.45892334 -0.72114563 0.54919434c0 0.25076294 -0.44230652 0.75982666 -1.3269043 1.5271912c-0.23075867 0.2758484 -0.37979126 0.5215759 -0.44709778 0.73724365c-0.05769348 0.21566772 -0.08654785 0.35610962 -0.08654785 0.42129517c-0.47114563 0.73724365 -0.8220978 1.1535339 -1.0528564 1.2488098c-0.24038696 0.120391846 -0.41827393 0.25830078 -0.53364563 0.41378784c-0.11538696 0.15545654 -0.26441956 0.39620972 -0.44711304 0.7221985c-0.17308044 0.3209839 -0.28845215 0.57424927 -0.34614563 0.75982666l-0.63461304 1.7077332c-0.28845215 0 -0.62498474 0.28585815 -1.0095978 0.8576355c-0.38461304 0.5667114 -0.72595215 1.2513123 -1.0240173 2.053772c-0.8845978 1.7553711 -1.3269043 3.1722107 -1.3269043 4.250519c0 0.83255005 0.25 1.5271606 0.74998474 2.0838928c0.5 0.55166626 1.3124847 1.0431824 2.4374695 1.4744873c1.3653564 0.5567322 2.918213 0.91781616 4.6585693 1.0833435c1.7403564 0.17050171 3.999939 0.25576782 6.7787323 0.25576782c1.8269043 0 3.2403412 -0.07772827 4.240326 -0.23321533c1.0095978 -0.15045166 2.7547607 -0.5040283 5.235489 -1.06073c3.490326 -0.70718384 5.749893 -1.1911621 6.7787323 -1.4519653c1.0384369 -0.26080322 1.557663 -0.5466614 1.557663 -0.8576355c0.05769348 -0.12036133 -0.32691956 -0.42630005 -1.1538239 -0.91778564c-0.82691956 -0.496521 -1.3317108 -0.7447815 -1.5144043 -0.7447815c-0.7019043 0 -1.2884369 0.17050171 -1.7595825 0.51156616c-0.35575867 0 -0.78845215 0.030090332 -1.2980499 0.090270996c-0.5 0.060180664 -0.9567261 0.10531616 -1.3701782 0.1354065c-0.35575867 0.0953064 -1.0192108 0.26583862 -1.9903564 0.51156616c-0.9711304 0.24575806 -1.9326477 0.5065613 -2.8845673 0.78240967c-2.7691803 0.37112427 -5.42778 0.55670166 -7.975815 0.55670166c-1.3557587 0 -2.533615 -0.045135498 -3.5335999 -0.1354065c-1.2403717 -0.2808838 -2.1153564 -0.5817871 -2.6249542 -0.902771c-0.5 -0.32598877 -0.75 -0.7046509 -0.75 -1.1359863c0 -0.21566772 0.17788696 -0.69210815 0.53364563 -1.4293823c0.4711609 -1.4494324 1.0 -2.6731873 1.5865173 -3.6712341c0.59614563 -1.0030823 1.3942108 -2.0914001 2.3941956 -3.2649841c0.65382385 -0.7673645 1.1874695 -1.4519653 1.6009369 -2.0538025c0.41345215 -0.60183716 0.66345215 -0.9253235 0.74998474 -0.970459c0.013427734 -0.007019043 0.028015137 -0.010528564 0.043762207 -0.010528564c0.08570862 0 0.20573425 0.1038208 0.3600769 0.31143188c0.0605011 0.00881958 0.15231323 0.013214111 0.27540588 0.013214111c0.71810913 0 2.5012817 -0.14984131 5.3495026 -0.44955444c3.3364716 -0.3560791 6.5383453 -0.7497864 9.605606 -1.1810913c3.0768738 -0.43133545 4.87973 -0.78741455 5.4085693 -1.0682983c0.48075867 -0.090270996 0.7211304 -0.2432251 0.7211304 -0.45889282c0 -0.15548706 -0.16345215 -0.30093384 -0.4903717 -0.43634033c-0.32691956 -0.14041138 -0.81729126 -0.24072266 -1.4711304 -0.30090332c-0.7019043 -0.21566772 -1.4663239 -0.32351685 -2.2932281 -0.32351685c-0.47114563 0 -1.0047913 0.045166016 -1.6009369 0.13543701c-1.2403564 0 -3.177826 0.07019043 -5.8124084 0.21063232c-2.6249542 0.1354065 -4.850876 0.28085327 -6.677765 0.43634033c-0.35577393 -0.060180664 -0.53364563 -0.21316528 -0.53364563 -0.45889282c0 -0.31097412 0.38461304 -0.74227905 1.1538239 -1.2939758c0.8845978 -0.64697266 1.504776 -1.1234436 1.8605499 -1.4293823c0.35575867 -0.3109436 0.53364563 -0.60684204 0.53364563 -0.88772583c0.05769348 -0.2156372 0.99998474 -1.1159058 2.8268738 -2.7007446c1.8365021 -1.5848694 2.8701477 -2.3772888 3.1009064 -2.3772888c0.18269348 0 0.5673065 -0.015045166 1.1538239 -0.045135498c0.59614563 -0.035125732 1.2451782 -0.112854004 1.9470825 -0.23321533c0.48077393 0 1.2788239 -0.04763794 2.3941956 -0.14294434c3.0768738 -0.2758484 5.70665 -0.41375732 7.8892975 -0.41375732c2.5960999 0 4.557617 -0.015045166 5.8845215 -0.045135498c1.3365173 -0.030090332 2.0047607 -0.12289429 2.0047607 -0.27835083c0 -0.090270996 -0.09133911 -0.29589844 -0.27401733 -0.6168823c-0.1730957 -0.3260193 -0.4375 -0.5817871 -0.7932739 -0.7673645c-0.23074341 -0.065216064 -0.61535645 -0.16549683 -1.1538086 -0.30093384c-0.5288391 -0.14041138 -1.134613 -0.26330566 -1.8172913 -0.36862183c-0.6730652 -0.110321045 -1.4855499 -0.16549683 -2.4374542 -0.16549683c-1.8845825 -0.060180664 -3.3605194 -0.090270996 -4.4278107 -0.090270996zm-133.27367 -0.51156616c-0.99998474 0 -2.653801 0.3560791 -4.9614563 1.0682678c-1.7692032 0.43130493 -3.379753 0.96295166 -4.83165 1.5948792c-1.4422836 0.6269226 -3.4374466 1.6199646 -5.9854813 2.979126c-1.8845825 1.3240356 -3.5960922 2.7408752 -5.134529 4.250519c-1.5384369 1.509613 -3.105713 3.5282898 -4.7018433 6.0560303c-0.28845978 0.7723694 -0.78845215 1.7277832 -1.4999771 2.866272c-0.29807281 0.52160645 -0.4471054 0.8300476 -0.4471054 0.925354c0.057685852 0.060180664 0.07211304 0.21313477 0.043266296 0.45889282c-0.02884674 0.24575806 -0.15865326 0.43133545 -0.38941956 0.55670166c-0.2980652 0.7673645 -0.596138 1.8005066 -0.8942108 3.0994873c-0.28845978 1.2939758 -0.43268585 2.3722534 -0.43268585 3.2348938c0 0.39624023 0.02884674 0.6720886 0.08653259 0.82754517c0.11538696 0.7121887 0.49518585 1.3065186 1.1394043 1.782959c0.6538391 0.47647095 2.0143967 1.1309509 4.081665 1.963501c1.7115097 0.6470032 3.6008987 0.9704895 5.6681747 0.9704895c3.8460846 0 7.9373627 -0.98553467 12.273834 -2.956543c4.3460846 -1.9760742 8.115257 -4.596588 11.307503 -7.8615723c2.769188 -2.372284 4.6874237 -4.3433228 5.754715 -5.9131165c1.0672913 -1.5748291 1.6009369 -3.13208 1.6009369 -4.671814c0 -0.9529114 -0.26922607 -2.369751 -0.8076782 -4.250519c-0.7596054 -2.1565857 -1.9711304 -3.7514648 -3.6345596 -4.7846375c-1.6538162 -1.0331726 -4.1345444 -1.7327881 -7.4421844 -2.098938c-0.34614563 -0.06518555 -0.6105652 -0.09777832 -0.79325104 -0.09777832z" fill-rule="evenodd"/><path stroke="#e69138" stroke-width="1.0" stroke-linejoin="round" stroke-linecap="butt" d="m156.2179 396.47675c0.59614563 0 1.1874847 0.07772827 1.7740173 0.23321533c0.47114563 0.12036133 0.7067108 0.6444702 0.7067108 1.5723267c0 0.73724365 -0.14422607 1.3666687 -0.43267822 1.8882751c-0.7692261 1.1434937 -1.5817108 2.0863953 -2.4374542 2.8286743c-0.85575867 0.73724365 -1.995163 1.5221558 -3.418213 2.3547058c-3.0095673 1.6600647 -5.4902954 2.4901123 -7.4421844 2.4901123c-0.7692261 0 -1.3749847 -0.13790894 -1.817276 -0.41375732c-0.44230652 -0.2758484 -0.66345215 -0.6444702 -0.66345215 -1.105896c0 -0.6168823 0.29325867 -1.2488098 0.87979126 -1.895813c1.4230499 -1.6651001 2.8124542 -3.0593567 4.1681976 -4.1828003c1.3653564 -1.1284485 2.9037933 -2.076355 4.6153107 -2.843689c1.4134369 -0.61691284 2.7691803 -0.925354 4.06723 -0.925354zm1.1538391 -2.956543c-0.4134674 0 -1.2115173 0.07522583 -2.3941956 0.22567749c-1.3557434 0.15548706 -2.596115 0.3887024 -3.7210999 0.699646c-1.1153564 0.30593872 -2.3845673 0.78240967 -3.8076172 1.4293823c-0.99998474 0.43130493 -2.139389 1.0632629 -3.418213 1.895813c-1.2692108 0.83255005 -2.2259216 1.5246582 -2.8701477 2.076355c-0.8845978 0.7121887 -1.6249695 1.4920654 -2.221115 2.3396606c-0.5865326 0.8475952 -0.82211304 1.3942566 -0.7067261 1.6400146c0.11538696 0.33602905 0 0.50405884 -0.34614563 0.50405884c-0.06730652 0.06518555 -0.15864563 0.12036133 -0.2740326 0.16549683c-0.11538696 0.045135498 -0.17308044 0.09277344 -0.17308044 0.14294434c0 0.045135498 0.11538696 0.12786865 0.34614563 0.2482605c0 0.060180664 0.014434814 0.1980896 0.043273926 0.41375732c0.038467407 0.21566772 -0.03364563 0.43130493 -0.21633911 0.64697266c-0.05769348 0.0953064 -0.08653259 0.25076294 -0.08653259 0.46643066c0 0.8927307 0.9759369 1.8782654 2.927826 2.9565735c0.7692261 0.34103394 1.3605652 0.57424927 1.7740173 0.6996155c0.41345215 0.120391846 0.9711304 0.18057251 1.6730499 0.18057251c1.307663 -0.030090332 2.4759216 -0.14544678 3.5047455 -0.34606934c1.0384369 -0.20062256 2.1778412 -0.5316162 3.418213 -0.993042c1.942276 -0.6168823 3.5047455 -1.193634 4.6874237 -1.7302856c1.182663 -0.5416565 2.4518738 -1.3215637 3.8076324 -2.3396606c3.134552 -2.3421936 4.7018433 -4.5138245 4.7018433 -6.5149536c0 -1.2037048 -0.3125 -2.0888977 -0.93748474 -2.6556396c-0.6153717 -0.5717468 -1.7211304 -1.0431824 -3.3172607 -1.4143372c-0.5288391 -0.2758484 -0.9567108 -0.46643066 -1.2836304 -0.5717468c-0.32691956 -0.110321045 -0.6970978 -0.16549683 -1.1105499 -0.16549683zm-32.251305 -13.917603c-1.4807434 0 -2.8845673 0.09277344 -4.211464 0.27835083c-1.3269043 0.18554688 -2.3749619 0.38616943 -3.1441803 0.60183716c-1.2403641 0.37112427 -2.8653336 1.0958557 -4.874916 2.1741638c-2.0095901 1.0782776 -3.8412857 2.327118 -5.495102 3.74646c-1.0576782 0.9529114 -2.3557358 2.3321228 -3.894165 4.137665c-1.5384369 1.8005066 -2.841301 3.5157776 -3.9085922 5.145752c-2.4807281 4.0373535 -3.687439 7.874115 -3.6201324 11.510254c-0.12499237 1.0180969 0.2692337 2.006134 1.1826706 2.9640808c0.9230652 0.9529114 2.182663 1.690155 3.7787857 2.2117615c1.2403641 0.46643066 2.7739944 0.699646 4.6008835 0.699646c2.596115 0 5.5191345 -0.38619995 8.769089 -1.1585388c1.6538162 -0.34106445 3.826851 -1.0883484 6.5191193 -2.2418823c2.6922607 -1.1535339 4.7162704 -2.2243042 6.072014 -3.2123413c3.0672607 -2.4023438 4.870117 -4.205353 5.4085693 -5.4090576c0.23075867 -0.52160645 0.34614563 -1.1209412 0.34614563 -1.7980042c0 -1.419342 -0.91345215 -2.3597107 -2.7403412 -2.8211365c-1.951889 -0.496521 -4.6393433 -0.7447815 -8.062363 -0.7447815c-2.4230423 0 -4.048012 0.09277344 -4.8749237 0.27835083c-0.76921844 0.40124512 -1.1538239 0.78741455 -1.1538239 1.1585388c0 0.24575806 0.20672607 0.53915405 0.6201782 0.8802185c0.5288391 0.15045166 1.1153641 0.2432251 1.7595901 0.27835083c0.6538391 0.030090332 1.5720901 0.045135498 2.7547607 0.045135498c1.7691956 0 3.24514 0.030090332 4.4278107 0.090270996c1.1249847 0 1.6874695 0.30844116 1.6874695 0.9253235c0 0.8927307 -1.3268967 2.6330872 -3.9806976 5.2210083c-1.6538162 1.354126 -3.7258987 2.5628357 -6.2162476 3.6260986c-2.4807281 1.0632629 -4.69223 1.6575623 -6.634506 1.782959c-1.7115021 0.30593872 -3.1585999 0.45889282 -4.3412704 0.45889282c-1.7115097 0 -2.9374466 -0.29840088 -3.677826 -0.89523315c-0.7403717 -0.60183716 -1.1105576 -1.4745178 -1.1105576 -2.6180115c0 -0.92282104 0.17788696 -1.9534912 0.53364563 -3.09198c0.17307281 -0.677063 0.55287933 -1.692688 1.1394043 -3.046814c0.59614563 -1.3591614 1.1297913 -2.4851074 1.6009369 -3.3778381c1.4807434 -2.868805 3.9903107 -5.9206543 7.528717 -9.155548c0.8269119 -0.83255005 2.0095901 -1.7328186 3.5480194 -2.7007751c1.5384369 -0.9729614 2.841301 -1.7052002 3.9085922 -2.1967163c0.7595978 -0.34103394 1.6874695 -0.59432983 2.7836075 -0.75982666c1.0961304 -0.17053223 2.1730347 -0.25579834 3.230713 -0.25579834c1.3653641 0 2.4326553 0.12289429 3.2018661 0.36865234c0.2884674 0.090270996 0.75479126 0.21313477 1.3990173 0.36862183c0.6538391 0.15545654 1.2740173 0.34857178 1.8605499 0.57925415c0.59614563 0.23071289 1.1922913 0.5767822 1.7884369 1.038208c0.35575867 0.2156372 0.7067108 0.32348633 1.0528564 0.32348633c0.59614563 0 1.1730652 -0.21566772 1.7307434 -0.6470032c0.56729126 -0.43130493 0.8220978 -0.79992676 0.7644043 -1.1058655c0 -0.21566772 -0.09133911 -0.41629028 -0.2740326 -0.60183716c-0.17306519 -0.1855774 -0.4230652 -0.40124512 -0.74998474 -0.6470032c-0.32691956 -0.24575806 -0.6105652 -0.46139526 -0.8509369 -0.64697266c-0.4711609 -0.21566772 -1.3845978 -0.48397827 -2.7403412 -0.80496216c-1.3557587 -0.32598877 -2.7451477 -0.5817871 -4.168213 -0.7673645c-0.9999771 -0.12536621 -2.091301 -0.18804932 -3.2739792 -0.18804932z" fill-rule="evenodd"/><path stroke="#e69138" stroke-width="1.0" stroke-linejoin="round" stroke-linecap="butt" d="m252.53923 395.13766c0.2980652 0 0.62498474 0.045135498 0.98075867 0.1354065c0.41345215 0.21566772 0.6201782 0.586792 0.6201782 1.1134033c0 0.9830017 -0.7067261 1.9685364 -2.120163 2.956543c-1.4807434 1.0482178 -3.105713 1.5723267 -4.8749084 1.5723267c-0.6538391 0 -1.1874847 -0.13793945 -1.6009369 -0.41375732c-0.41345215 -0.2808838 -0.6201935 -0.6369629 -0.6201935 -1.0682678c-0.046142578 -0.04815674 -0.21537781 -0.07223511 -0.5076752 -0.07223511c-0.07307434 0 -0.15385437 0.0014953613 -0.24230957 0.0045166016c-0.44229126 0.015045166 -0.89901733 0.067718506 -1.370163 0.1579895l1.1538239 -0.9704895c0.7595978 -0.5817871 1.9374695 -1.2488098 3.5335999 -2.0011292c1.5961151 -0.7573242 2.7787933 -1.1836243 3.5480194 -1.2789001c0.71151733 -0.090270996 1.2115173 -0.1354065 1.4999695 -0.1354065zm-1.2403717 -2.2644348c-1.4711151 0 -2.7980194 0.16799927 -3.9806976 0.5040283c-2.067276 0.496521 -4.1056976 1.4544678 -6.11528 2.8738098c-2.0095825 1.4143372 -3.6489868 3.0066833 -4.9181824 4.77713c-1.2692108 1.7704163 -1.9038239 3.3953857 -1.9038239 4.8749084c0 1.4795227 0.8269043 2.7133179 2.4807281 3.701355c1.6538239 0.9830017 3.749939 1.4744873 6.2883606 1.4744873c1.1826782 0 2.4374542 -0.12286377 3.7643585 -0.36862183c1.3365173 -0.24575806 2.120163 -0.4914856 2.3509216 -0.73724365l0.7067261 0c0.53845215 0 1.0720978 -0.1855774 1.6009369 -0.55670166l-0.08654785 0c0.11538696 -0.060180664 0.3509674 -0.13543701 0.7067261 -0.22570801c0.35575867 -0.09527588 0.56248474 -0.14294434 0.6201782 -0.14294434c0.47114563 -0.030090332 1.1778564 -0.3209839 2.120163 -0.87265015c0.9519043 -0.55670166 1.4855499 -0.9579468 1.6009369 -1.2037048c0 -0.34103394 -0.35577393 -0.61938477 -1.0672913 -0.8350525c-0.44386292 -0.13635254 -0.8550415 -0.20455933 -1.2335358 -0.20455933c-0.220047 0 -0.4290619 0.023040771 -0.62701416 0.06915283c-0.11538696 0.090270996 -0.23558044 0.15045166 -0.36058044 0.18054199c-0.115371704 0.030090332 -0.23075867 0.045135498 -0.34614563 0.045135498c-0.17306519 0.065216064 -0.49998474 0.17553711 -0.9807434 0.33102417c-0.47114563 0.15045166 -1.0576782 0.31848145 -1.7595978 0.50405884l0.08654785 0l-0.36058044 0.090270996c-0.6442108 0.24572754 -1.307663 0.4864807 -1.9903412 0.7221985c-0.6826935 0.23071289 -1.4663239 0.42129517 -2.3509216 0.5717468c-0.5288391 0.12539673 -1.3845978 0.18807983 -2.567276 0.18807983c-1.5961304 0 -2.6009216 -0.17053223 -3.0143738 -0.51156616c-0.58651733 -0.4915161 -0.87979126 -1.1384888 -0.87979126 -1.9409485c0 -1.1685791 0.6201935 -2.5854187 1.8605499 -4.250519l0.25961304 -0.36862183l0.6201782 0.36862183c0.59614563 0.46142578 1.4374695 0.8074951 2.524002 1.0381775c1.0961304 0.23071289 2.264389 0.34606934 3.5047455 0.34606934c1.4134369 0 2.596115 -0.1529541 3.5480194 -0.45889282c1.826889 -0.55670166 3.3172455 -1.2262573 4.4710846 -2.008667c1.1538086 -0.78741455 2.0816956 -1.7503357 2.7835999 -2.8888245c0.2980652 -0.61691284 0.44711304 -1.0181274 0.44711304 -1.2037048c0 -0.21566772 -0.08654785 -0.60183716 -0.25961304 -1.1585388c-0.41345215 -0.64697266 -0.8894043 -1.1234436 -1.4278564 -1.4293823c-0.5288391 -0.3109436 -1.2932434 -0.57424927 -2.2932434 -0.789917c-1.4230499 -0.33602905 -2.6970673 -0.5040283 -3.822052 -0.5040283zm-30.298203 -13.406067c-1.5384369 0 -3.0047607 0.10784912 -4.3989716 0.32348633c-1.3845825 0.21566772 -2.4903412 0.44638062 -3.3172455 0.6921387c-1.2403717 0.4012146 -2.8220673 1.1560364 -4.745117 2.2644348c-1.9134369 1.1083984 -3.6393585 2.3872986 -5.1777954 3.836731c-1.0576782 0.9880371 -2.283615 2.392334 -3.677826 4.212921c-1.3845978 1.8155518 -2.5480347 3.5533752 -3.490326 5.21344c-2.0095825 3.545868 -3.0143738 6.936249 -3.0143738 10.171143l0.08653259 1.3842468c0 1.0181274 0.4855652 1.9986267 1.4567108 2.9414978c0.98075867 0.9378662 2.2691956 1.6525574 3.865326 2.1440735c1.1730499 0.4012146 2.6201477 0.60183716 4.341263 0.60183716c2.5384216 0 5.547989 -0.43130493 9.028702 -1.2939453c1.5961304 -0.3711548 3.706665 -1.1560669 6.3316193 -2.3547058c2.6345825 -1.2037048 4.600891 -2.3146057 5.898941 -3.3327332c2.836502 -2.432434 4.4903107 -4.2655334 4.9614563 -5.4993286c0.18269348 -0.5516968 0.2740326 -1.0757751 0.2740326 -1.5722961c0 -1.5397339 -0.9759369 -2.5402832 -2.927826 -3.001709c-1.8941956 -0.43130493 -4.259552 -0.64697266 -7.096039 -0.64697266c-1.2980499 0 -2.4807281 0.040130615 -3.5480194 0.12036133c-1.0576782 0.07522583 -1.8220825 0.17303467 -2.2932281 0.293396c-0.7115326 0.3711548 -1.0672913 0.74227905 -1.0672913 1.1134033c0 0.24575806 0.20672607 0.5541992 0.6201782 0.925354c0.82691956 0.15045166 1.8028564 0.22567749 2.9278412 0.22567749l3.8076324 -0.045135498c0.94229126 0 1.682663 0.015045166 2.221115 0.045135498c0.047454834 -0.0012817383 0.09390259 -0.0019226074 0.13935852 -0.0019226074c1.0224609 0 1.5336914 0.3241272 1.5336914 0.9724121c0 1.0180969 -1.1778717 2.7609253 -3.5335999 5.228485c-1.5961304 1.4143372 -3.5912933 2.6706848 -5.9854736 3.769043c-2.3941956 1.0933533 -4.56723 1.715271 -6.5191193 1.8657227c-1.8269043 0.37112427 -3.3605347 0.55670166 -4.600891 0.55670166c-1.7115173 0 -2.9230347 -0.32348633 -3.634552 -0.970459c-0.7115326 -0.6470032 -1.0672913 -1.5873718 -1.0672913 -2.8211365c0 -0.9529419 0.12019348 -1.8607178 0.3605652 -2.7233582c0.11538696 -0.677063 0.4230652 -1.7001953 0.9230652 -3.069397c0.50961304 -1.3742065 0.9711304 -2.50766 1.3845978 -3.4004211c1.2403564 -2.8988647 3.5431976 -5.9958496 6.908539 -9.290924c0.7019043 -0.83255005 1.7932281 -1.7503662 3.2739716 -2.7534485c1.4807434 -1.0030518 2.7499542 -1.7653809 3.8076324 -2.2869873c0.7692261 -0.34106445 1.745163 -0.61187744 2.9278412 -0.8125c1.182663 -0.20062256 2.336502 -0.30090332 3.4614716 -0.30090332c1.1826782 0 2.1249695 0.09277344 2.826889 0.27835083c0.35575867 0.09527588 0.85575867 0.2206726 1.4999695 0.37612915c0.6538391 0.15048218 1.2740173 0.3335266 1.8605499 0.54919434c0.59614563 0.21566772 1.192276 0.53915405 1.7884216 0.970459c0.2884674 0.1855774 0.63941956 0.27835083 1.0528717 0.27835083c0.6538391 0 1.2451782 -0.2156372 1.7740173 -0.64697266c0.53845215 -0.43130493 0.7451782 -0.7999573 0.6201782 -1.105896c0 -0.2156372 -0.105773926 -0.41625977 -0.31730652 -0.60183716c-0.20191956 -0.18554688 -0.4663391 -0.39370728 -0.79325867 -0.62438965c-0.31729126 -0.23071289 -0.59614563 -0.43884277 -0.83651733 -0.62442017c-0.5288391 -0.21566772 -1.4759369 -0.4689331 -2.8413086 -0.75982666c-1.3557434 -0.29589844 -2.7691803 -0.52160645 -4.2403107 -0.677063c-1.0095978 -0.09030151 -1.9566956 -0.13543701 -2.8412933 -0.13543701z" fill-rule="evenodd"/><path stroke="#e69138" stroke-width="1.0" stroke-linejoin="round" stroke-linecap="butt" d="m282.40604 385.29c-0.58654785 0 -1.0865173 0.1078186 -1.5 0.32348633c-0.5961304 0.24575806 -1.1009216 0.5466614 -1.5143738 0.902771c-0.41345215 0.3560791 -0.67788696 0.57925415 -0.7932739 0.66952515c-0.58651733 0.4915161 -1.0720825 0.9303589 -1.4566956 1.3165588c-0.38461304 0.38616943 -0.6682434 0.6720276 -0.85095215 0.857605c-0.28845215 0.30593872 -0.5961609 0.6444702 -0.9230652 1.015625c-0.3269043 0.37112427 -0.6105652 0.6795654 -0.85095215 0.9253235c-0.23074341 0.37112427 -0.64419556 0.6168823 -1.2403564 0.73724365c-0.88461304 0.0953064 -2.2115173 0.14294434 -3.980713 0.14294434c-0.76919556 0 -1.2403564 -0.017547607 -1.4134216 -0.052642822c-0.2980652 0 -0.7019043 0.17803955 -1.2115173 0.53411865c-0.5 0.35610962 -0.75 0.65701294 -0.75 0.902771c0 0.15548706 0.13461304 0.32598877 0.4038391 0.51156616c0.26922607 0.18054199 0.6105652 0.28588867 1.0240173 0.315979l3.5335999 0.51156616l-2.3797607 2.6781921l-1.2403564 1.8506775l-1.6009521 2.4524841c-0.24035645 0.4915161 -0.43267822 1.1384888 -0.5769043 1.9409485c-0.14422607 0.8024597 -0.21633911 1.5723267 -0.21633911 2.3095703c0 0.92282104 0.11538696 1.4318848 0.34613037 1.5271912c0.05770874 0.030090332 0.14425659 0.08526611 0.25961304 0.16549683c0.125 0.07522583 0.1875 0.14294434 0.1875 0.203125c0.2980652 0.4915161 0.9326782 1.0231323 1.9038086 1.5948792c0.9711609 0.5717468 1.9326782 0.902771 2.8845825 0.993042c0.8269043 0.090270996 1.7115173 0.1354065 2.6538086 0.1354065c3.4230042 0 6.85083 -0.5692444 10.283478 -1.7077332c1.6538086 -0.4914856 2.687439 -0.92282104 3.1009216 -1.2939453c0.41345215 -0.3711548 0.6201782 -0.8024597 0.6201782 -1.2939758c-0.35577393 -0.4914856 -0.7692261 -0.73724365 -1.240387 -0.73724365c-0.24035645 0 -0.44708252 0.09277344 -0.6201782 0.27835083c-0.18267822 0.060180664 -0.49517822 0.16049194 -0.9374695 0.30093384c-0.44229126 0.1354065 -0.92785645 0.28085327 -1.4567261 0.4363098c-0.8845825 0.2758484 -2.2163086 0.6143799 -3.9951172 1.015625c-1.4711304 0.21566772 -3.2114868 0.32348633 -5.2210693 0.32348633c-1.4134216 0 -2.418213 -0.09277344 -3.0143738 -0.27835083c-0.58651733 -0.1855774 -0.87979126 -0.5090637 -0.87979126 -0.970459c0 -0.120391846 0.05770874 -0.428833 0.17306519 -0.925354c0.7692261 -2.5879211 1.9519043 -5.113159 3.5480347 -7.5756836c0.23077393 -0.1855774 0.75961304 -0.72473145 1.5865173 -1.6174622c0.6538391 -0.6168823 1.0672913 -0.9729614 1.2403564 -1.0682678c0.24038696 -0.2758484 0.46151733 -0.473938 0.66345215 -0.59432983c0.21151733 -0.12536621 0.55285645 -0.21817017 1.0240173 -0.27835083c0.4711609 -0.06518555 0.92785645 -0.10531616 1.3701782 -0.12036133c0.44229126 -0.015045166 0.8413086 -0.02255249 1.1970825 -0.02255249c2.0095825 0 3.9614868 -0.07775879 5.8556824 -0.23321533c1.9422607 0 3.1922607 -0.045135498 3.749939 -0.13543701c0.56729126 -0.090270996 0.85095215 -0.35107422 0.85095215 -0.78237915c0 -0.25076294 -0.028869629 -0.46643066 -0.08654785 -0.64697266c-0.17306519 -0.8977661 -1.2932434 -1.3466492 -3.3605042 -1.3466492c-0.2980957 0 -0.8605652 0.03262329 -1.6875 0.09780884c-1.9518738 0.1855774 -3.341278 0.27835083 -4.1681824 0.27835083c-0.7692261 0 -1.1538391 -0.1078186 -1.1538391 -0.32348633c0 -0.21566772 0.2980652 -0.5241089 0.8942261 -0.9253235c0.28845215 -0.31097412 0.78845215 -0.7748718 1.4999695 -1.3917847c0.24038696 -0.2156372 0.5192261 -0.4689331 0.83651733 -0.75982666c0.3269348 -0.29089355 0.6682739 -0.6218872 1.0240173 -0.993042c0.4711609 -0.4012146 0.7067261 -0.66452026 0.7067261 -0.789917c0 -0.12036133 -0.105773926 -0.25827026 -0.31729126 -0.41375732c-0.20193481 -0.15548706 -0.3605652 -0.27835083 -0.47595215 -0.36862183c-0.94229126 -0.40124512 -1.7115173 -0.60183716 -2.3076477 -0.60183716z" fill-rule="evenodd"/><path stroke="#e69138" stroke-width="1.0" stroke-linejoin="round" stroke-linecap="butt" d="m282.75943 439.92227c2.0095825 0 3.605713 0.15298462 4.788391 0.45892334c1.8365173 0.37112427 3.134552 0.7798767 3.894165 1.2262573c0.7692261 0.4463501 1.4230652 1.0858154 1.9615173 1.9183655c0 0.677063 -0.076934814 1.1484985 -0.23077393 1.4143372c-0.14422607 0.26080322 -0.57211304 0.7447815 -1.2836304 1.4519348c-0.6442261 0.7723694 -1.8557434 1.6124268 -3.634552 2.5202026c-1.7691956 0.9078064 -2.980713 1.3917847 -3.634552 1.4519653c-0.11538696 0.06518555 -0.33654785 0.19058228 -0.66345215 0.37615967c-0.3269348 0.18054199 -0.72595215 0.3334961 -1.197113 0.45889282c-0.94229126 0.33602905 -1.7836304 0.6143799 -2.5239868 0.8350525c-0.74038696 0.21566772 -1.9951477 0.4915161 -3.7643738 0.82754517c-0.94229126 0.37112427 -1.7403564 0.55670166 -2.394165 0.55670166c-0.58654785 0 -0.9711304 -0.15548706 -1.1538391 -0.46643066c0 -0.21566772 1.1249695 -1.6475525 3.374939 -4.2956543c0.58651733 -0.8626404 1.2644043 -1.7102356 2.0336304 -2.5427856c1.0672913 -1.3842468 1.6009216 -2.1691284 1.6009216 -2.3547058c0.35577393 -0.34103394 0.5336609 -0.7121887 0.5336609 -1.1134033c0 -0.33602905 -0.105773926 -0.7272339 -0.31732178 -1.1736145c-0.2019043 -0.4463501 -0.33651733 -0.7623291 -0.4038391 -0.9479065c-0.23074341 -0.18554688 -0.03845215 -0.33099365 0.5769348 -0.4363098c0.6249695 -0.11035156 1.4374695 -0.16552734 2.437439 -0.16552734zm-166.41605 -1.2488098c1.4230499 0 2.5768738 0.26080322 3.4614792 0.78237915c0.47114563 0.28085327 0.8845978 0.70718384 1.2403641 1.2789307c0.35575867 0.56674194 0.5624924 1.1109009 0.6201782 1.6325073l0.08654022 3.0091858c0 1.0181274 -0.1057663 1.8883057 -0.3172989 2.6105042c-0.20191956 0.722229 -0.6297989 1.7303162 -1.283638 3.0242615c-1.1153641 2.0362244 -2.057663 3.5483704 -2.8268738 4.536377c-0.76921844 0.9830322 -1.6442032 1.8306274 -2.6249542 2.5427856c-0.97114563 0.70718384 -2.6057358 1.7528687 -4.9037704 3.1371155c-2.663414 1.6049194 -4.8989487 2.7534485 -6.7066193 3.4455566c-1.7980423 0.69210815 -3.7018585 1.1008606 -5.711441 1.2262573c-0.2307663 0.030090332 -0.55287933 0.045135498 -0.9663315 0.045135498c-0.71152496 0 -1.3942108 -0.07772827 -2.0480423 -0.23321533c-0.64421844 -0.15548706 -1.1153564 -0.35610962 -1.4134369 -0.60183716c-0.2307663 -0.21566772 -0.49518585 -0.4237976 -0.79325867 -0.62442017c-0.2980652 -0.20062256 -0.4903717 -0.37615967 -0.5769119 -0.5266113c-0.08653259 -0.15548706 -0.12980652 -0.3711548 -0.12980652 -0.64697266l0.17307281 -1.5723267c0.11538696 -1.3240356 0.64421844 -2.9715881 1.5865173 -4.942627c0.9519043 -1.9760437 2.0480423 -3.811676 3.2884064 -5.5068665c1.2403641 -1.6951904 2.3605347 -2.818634 3.3605194 -3.3703308c0.18268585 -0.12536621 0.30287933 -0.26330566 0.36057281 -0.41375732c0.05769348 -0.15548706 0.08653259 -0.2482605 0.08653259 -0.27835083c0 -0.37112427 0.87018585 -1.1811218 2.6105347 -2.4299316c1.7499771 -1.2488403 3.7162933 -2.4650574 5.898941 -3.6486816c2.182663 -1.1886292 3.8364792 -1.9058228 4.9614563 -2.1515808c0.8269119 -0.21566772 1.6826706 -0.32348633 2.5672684 -0.32348633zm55.389793 -1.986084c-0.24038696 0.090270996 -0.8605652 0.1354065 -1.8605499 0.1354065c-0.2980652 0.030090332 -0.65382385 0.045135498 -1.0672913 0.045135498c-0.41345215 0 -0.8845978 0.032592773 -1.4134369 0.09780884c-0.6538391 -0.0953064 -1.5095825 -0.14294434 -2.5672607 -0.14294434c-0.7692261 0 -1.7307434 0.02508545 -2.8845673 0.07522583c-1.1538239 0.045135498 -1.9663086 0.08276367 -2.4374542 0.112854004c-2.9518738 0.33602905 -5.01915 0.50405884 -6.201828 0.50405884c-0.7692108 0 -1.2740173 -0.092803955 -1.5144043 -0.27838135c-0.34614563 -0.27581787 -0.93266296 -0.41375732 -1.7595825 -0.41375732c-0.41345215 0 -0.7692108 0.04763794 -1.0672913 0.14294434c-0.2980652 0.090270996 -0.44709778 0.21313477 -0.44709778 0.36862183c0 0.15045166 -0.38461304 0.36611938 -1.1538391 0.64697266c-0.13212585 -0.02420044 -0.30274963 -0.036315918 -0.51182556 -0.036315918c-0.3538208 0 -0.81781006 0.03466797 -1.391983 0.104034424c-0.9134369 0.10531616 -1.6345825 0.19058228 -2.1634216 0.25579834l-3.4614868 0.41375732c-0.8845978 0.030090332 -1.6105499 0.20812988 -2.1778412 0.53411865c-0.5576935 0.3209839 -0.8942261 0.7297363 -1.0095978 1.2262573c0 0.43133545 0.56248474 0.6470032 1.6874695 0.6470032l0.6201782 0c0.17308044 -0.035125732 0.4375 -0.06021118 0.79325867 -0.07525635c0.35575867 -0.015045166 0.8845978 -0.052642822 1.5865173 -0.11282349c1.4230499 -0.030090332 2.3701477 -0.07522583 2.8412933 -0.13543701c0.11538696 0 0.17308044 0.06271362 0.17308044 0.18807983c0 0.120391846 -0.09135437 0.33602905 -0.27404785 0.6470032c-0.17306519 0.30593872 -0.28845215 0.5190735 -0.34614563 0.6394348l-1.0528564 1.5723267l-3.3749542 5.040436c-0.94229126 1.0783081 -1.826889 1.8005066 -2.6537933 2.166626c-0.29808044 0.15548706 -0.50961304 0.29592896 -0.63461304 0.42129517c-0.11538696 0.12036133 -0.17306519 0.24325562 -0.17306519 0.36862183l0.10095215 0.45892334c-0.06730652 0.09527588 -0.24519348 0.4187622 -0.53364563 0.970459c-0.05769348 0.12539673 -0.20672607 0.3887024 -0.44709778 0.789917c-0.24038696 0.4012146 -0.5673065 0.7849121 -0.98075867 1.1510315c-0.99998474 1.0481873 -2.1345825 2.6054688 -3.4037933 4.671814c-1.2692108 2.0663147 -2.139389 3.6536865 -2.6105347 4.7620544c-0.35575867 0.5516968 -0.53364563 0.9529114 -0.53364563 1.2037048c0 0.18054199 0.10095978 0.3334961 0.30287933 0.45889282c0.21154022 0.12539673 0.5240402 0.27835083 0.9374924 0.45892334c0.2980652 0.18554688 0.66825867 0.32348633 1.1105499 0.41375732c0.44230652 0.09527588 0.8413391 0.14294434 1.1970978 0.14294434c0.41345215 0 0.6201782 -0.045135498 0.6201782 -0.13543701c0.11538696 -0.06518555 0.23077393 -0.20562744 0.3461609 -0.42126465c0.115371704 -0.21566772 0.20672607 -0.3836975 0.2740326 -0.50405884c0.23075867 -0.7071533 0.5528717 -1.3391113 0.96632385 -1.895813c0 -0.55670166 1.0336456 -2.251892 3.1009064 -5.0855713c2.067276 -2.8336792 3.634552 -4.744507 4.7018433 -5.732544c0 -0.21566772 0.10096741 -0.39871216 0.30288696 -0.54919434c0.2115326 -0.15545654 0.375 -0.2482605 0.4903717 -0.27835083c0.47114563 0.06021118 2.0095825 0.09030151 4.6153107 0.09030151c4.9614563 0 8.740234 -0.06271362 11.3363495 -0.18807983c2.7788086 -0.15048218 4.7114563 -0.28588867 5.797989 -0.40625c1.0961304 -0.12539673 1.7355347 -0.2984314 1.9182281 -0.519104c0.11538696 -0.12036133 0.17308044 -0.25827026 0.17308044 -0.41375732c0 -0.2758484 -0.13461304 -0.5817871 -0.4038391 -0.91781616c-0.25961304 -0.34103394 -0.5673065 -0.57424927 -0.9230652 -0.699646c-0.10194397 -0.022247314 -0.27404785 -0.03338623 -0.5162964 -0.03338623c-0.7402191 0 -2.1353912 0.10391235 -4.185547 0.31173706c-5.0768433 0.24575806 -9.153702 0.36865234 -12.230576 0.36865234c-2.1249542 0 -3.5431976 -0.060180664 -4.25473 -0.18057251c0.18269348 -0.15545654 0.9230652 -1.125946 2.221115 -2.9114075c0.29808044 -0.37112427 0.8894043 -1.1484985 1.7740173 -2.3321228c0.8845978 -1.1886597 1.504776 -1.9234009 1.8605347 -2.2042542c0.47114563 -0.70718384 0.99998474 -1.2914734 1.5865173 -1.7528687c0.59614563 -0.46142578 1.0432434 -0.6921387 1.3413239 -0.6921387c0.23075867 -0.030090332 0.8028717 -0.1078186 1.7163239 -0.23321533c0.9230499 -0.12536621 1.9134216 -0.20309448 2.9710999 -0.23321533c4.31723 -0.30593872 7.716217 -0.45889282 10.196945 -0.45889282c1.6538239 0 3.6009064 0.07772827 5.8412476 0.23321533c0.8269043 0.020050049 1.549118 0.030090332 2.166626 0.030090332c0.3087616 0 0.5913391 -0.0025024414 0.8477478 -0.007507324c0.7692108 -0.015045166 1.2547913 -0.06021118 1.4567108 -0.13543701c0.2115326 -0.08023071 0.34614563 -0.21313477 0.4038391 -0.39871216c0.2980652 -0.46139526 0.0048065186 -0.81500244 -0.87979126 -1.0607605c-0.18269348 -0.09527588 -0.3461609 -0.16549683 -0.49038696 -0.21063232c-0.04069519 -0.01272583 -0.078323364 -0.02368164 -0.11289978 -0.032806396l0 0c0.046417236 -0.032562256 0.06964111 -0.08932495 0.06964111 -0.1703186c0 -0.09527588 -0.09135437 -0.20562744 -0.2740326 -0.33102417c-0.23077393 -0.090270996 -0.49519348 -0.16549683 -0.79325867 -0.22567749c-0.29808044 -0.065216064 -0.78845215 -0.12036133 -1.4711304 -0.16549683c-0.6730652 -0.045135498 -1.2740173 -0.09780884 -1.8028564 -0.1579895zm39.342834 -1.8506775c0 0.12539673 -0.38459778 0.18807983 -1.1538239 0.18807983l-2.221115 -0.09780884c-0.5570526 -0.002960205 -1.0927124 -0.004425049 -1.6069794 -0.004425049c-4.7140503 0 -7.6302643 0.12435913 -8.748627 0.3730774c-0.068496704 -0.011291504 -0.16810608 -0.016937256 -0.29881287 -0.016937256c-0.21784973 0 -0.52207947 0.015655518 -0.91270447 0.047027588c-0.6153717 0.045135498 -1.1009369 0.082733154 -1.4566956 0.11282349l-0.7067261 0c-0.41345215 0 -0.6201782 0.07775879 -0.6201782 0.23321533c-0.23077393 0.120391846 -1.0432587 0.29592896 -2.4374542 0.5266113c-1.3845978 0.23071289 -2.4903564 0.3611145 -3.3172607 0.39120483c-1.1826782 0.035125732 -2.2499542 0.13793945 -3.2018738 0.30844116c-0.94229126 0.16552734 -1.5288086 0.3109436 -1.7595825 0.43634033c-0.47114563 0.24575806 -0.8845978 0.36862183 -1.2403564 0.36862183l-0.1875 0c-0.061813354 -0.006439209 -0.12120056 -0.009674072 -0.17816162 -0.009674072c-0.20883179 0 -0.38502502 0.04336548 -0.52856445 0.13006592c-0.17306519 0.10531616 -0.25961304 0.23321533 -0.25961304 0.383667c0 0.28085327 0.23558044 0.54415894 0.7067261 0.789917c0.11538696 0.15548706 0.25961304 0.26330566 0.43267822 0.32348633c0.18269348 0.060180664 0.42308044 0.090270996 0.72114563 0.090270996c0.41345215 0 0.97595215 -0.045135498 1.6874695 -0.1354065c0.26441956 0.015045166 0.5288391 0.022583008 0.79325867 0.022583008c0.26441956 0 0.5288391 -0.007537842 0.79325867 -0.022583008c0.5288391 -0.030090332 0.85575867 -0.062683105 0.98075867 -0.09780884c0.7019043 -0.060180664 1.1442108 -0.090270996 1.326889 -0.090270996c0.35577393 0 0.53364563 0.062683105 0.53364563 0.18807983c0 0 -0.12017822 0.1529541 -0.3605652 0.45889282c0 0.0953064 -0.23558044 0.58932495 -0.7067261 1.4820557c0 0.30593872 -0.3269043 1.0306396 -0.9807434 2.1741638c-1.0576782 1.0431824 -2.0288086 2.2894897 -2.9134216 3.738922c-0.8845978 1.4494629 -1.3605499 2.4048767 -1.4278564 2.8663025c0.06730652 0.2758484 -0.4038391 0.6218872 -1.4134369 1.0381775c-0.99998474 0.41625977 -2.004776 0.7171936 -3.0143738 0.9027405c-0.47114563 0.030090332 -0.78364563 0.10784912 -0.93748474 0.23321533c-0.14422607 0.12539673 -0.24519348 0.35610962 -0.3028717 0.6921387c0 0.46139526 0.057678223 0.7397461 0.17306519 0.8350525c0.125 0.090270996 0.53845215 0.16549683 1.2403717 0.22567749l1.3413239 -0.090270996l-0.1875 1.1585388c0 0.120391846 -0.014419556 0.32852173 -0.043273926 0.62442017c-0.028839111 0.29089355 -0.15864563 0.46643066 -0.38941956 0.5266113c-0.2403717 0 -0.7019043 0.8175049 -1.3845825 2.4525146c-0.6730652 1.6350098 -1.2788239 3.453064 -1.817276 5.454193l-0.7067261 2.1741638l1.3269043 0.82754517c1.0672913 0.496521 1.9566956 0.7447815 2.6682281 0.7447815c0.99998474 0 1.942276 -0.53915405 2.8268738 -1.6174622c1.5961304 -1.0482178 2.4230347 -1.6801453 2.4807281 -1.895813c-0.11538696 -0.28085327 -0.26441956 -0.5215759 -0.44711304 -0.7221985c-0.17306519 -0.20062256 -0.37498474 -0.30093384 -0.60575867 -0.30093384c-0.125 0 -0.21633911 0.017547607 -0.2740326 0.05267334c-0.41345215 -0.035125732 -0.91345215 -0.20565796 -1.4999695 -0.51156616c-0.24038696 -0.15548706 -0.110580444 -0.8175049 0.3894043 -1.986084c0.50961304 -1.173584 1.1490326 -2.4073792 1.9182434 -3.7013245c0.23075867 -0.33605957 0.375 -0.68963623 0.43267822 -1.0607605c0.05769348 -0.37112427 0.08654785 -0.60183716 0.08654785 -0.69210815c0 -0.12539673 0.043258667 -0.23321533 0.12980652 -0.32351685c0.09614563 -0.09527588 0.25961304 -0.18804932 0.4903717 -0.27835083c0.06730652 -0.030090332 0.17308044 -0.10531616 0.31730652 -0.22567749c0.14422607 -0.12539673 0.21633911 -0.23571777 0.21633911 -0.33102417c0 -0.46139526 0.17788696 -0.69210815 0.53364563 -0.69210815c0.07307434 0.012054443 0.17384338 0.018066406 0.30230713 0.018066406c0.19268799 0 0.4476776 -0.013549805 0.76498413 -0.040649414c0.5288391 -0.045135498 0.8845978 -0.06768799 1.0672913 -0.06768799c0.17306519 -0.060180664 0.59614563 -0.112854004 1.2692108 -0.1579895c0.6826782 -0.0501709 1.1730499 -0.1354065 1.4711304 -0.25579834c0.5288391 0.03012085 1.2692108 0.045166016 2.221115 0.045166016c1.5961304 0 2.8941803 -0.15548706 3.894165 -0.46643066c0.5865326 -0.15048218 1.3269043 -0.22570801 2.221115 -0.22570801c0.41345215 0 0.7067261 0.015045166 0.87979126 0.045135498l2.7547607 -0.51156616c0.34614563 -0.15545654 0.5192261 -0.46392822 0.5192261 -0.9253235c0 -0.7071533 -0.35095215 -1.3065186 -1.0528717 -1.7980042c-0.8269043 -0.1855774 -1.3605499 -0.27835083 -1.6009369 -0.27835083c-0.17306519 0 -0.6153717 0.07522583 -1.326889 0.22567749c-0.35577393 0.065216064 -1.0047913 0.1579895 -1.9470825 0.27835083c-1.2980652 0.12539673 -2.1538239 0.2482605 -2.567276 0.36865234c-0.41345215 0.035095215 -0.9326782 0.060180664 -1.557663 0.07522583c-0.6153717 0.015045166 -0.9230652 0.06768799 -0.9230652 0.1579895l0 0.045135498c-0.59614563 -0.060180664 -1.1874695 -0.09030151 -1.7740021 -0.09030151c-0.59614563 0.15548706 -1.0720978 0.23321533 -1.4278717 0.23321533c-0.28845215 0 -0.49517822 -0.015045166 -0.6201782 -0.045135498c-0.28845215 0.15048218 -0.5240326 0.22570801 -0.7067108 0.22570801c-0.17308044 0 -0.2884674 -0.15298462 -0.34614563 -0.45892334c0.58651733 -0.4914856 1.2067108 -1.2011719 1.8605347 -2.1289978c0.17308044 -0.46142578 0.6153717 -1.1384888 1.3269043 -2.0312195l0.79325867 -1.1585693c1.2403564 -1.6600647 1.9759216 -2.7132874 2.2066956 -3.159668c0.2403717 -0.4513855 0.33172607 -0.98550415 0.2740326 -1.6023865c0.05769348 -0.2758484 0.11538696 -0.5291443 0.17306519 -0.75982666c0.06730652 -0.23071289 0.15866089 -0.34606934 0.27404785 -0.34606934l0.08653259 0c0.17306519 0 0.40864563 -0.037628174 0.7067108 -0.112854004c0.29808044 -0.08023071 0.5048065 -0.1354065 0.6201935 -0.16549683c0.2403717 -0.090270996 0.66825867 -0.16552734 1.2836304 -0.22570801c0.62498474 -0.06518555 1.1153564 -0.12786865 1.4711304 -0.18804932l1.0528564 0.045135498c0.95191956 0 1.870163 -0.06271362 2.7547607 -0.18807983c0.23136902 0.015350342 0.4857483 0.023040771 0.76312256 0.023040771c0.35662842 0 0.75128174 -0.0126953125 1.1839752 -0.038085938c0.7692108 -0.0501709 1.389389 -0.07522583 1.8605347 -0.07522583c0.24038696 -0.03012085 0.6826782 -0.045166016 1.3269043 -0.045166016c1.4807434 0 3.447052 0.07022095 5.898941 0.21066284c2.451889 0.1354065 4.3556976 0.25076294 5.711441 0.34606934l2.3941956 0.41375732l-0.3605652 -1.0607605c-0.05769348 -0.8626404 -0.51441956 -1.4720154 -1.3701782 -1.8280945c-0.85575867 -0.3560791 -2.3172607 -0.564209 -4.3845367 -0.62442017c-0.82691956 -0.12036133 -1.6105499 -0.21063232 -2.3509216 -0.270813c-0.7403717 -0.065216064 -1.1970978 -0.09780884 -1.3701782 -0.09780884zm70.26999 1.6625977c-1.1826782 0 -2.1874695 0.09277344 -3.0143738 0.27835083c-1.0672913 0.15548706 -2.3557434 0.46392822 -3.865326 0.9253235c-1.4999695 0.46142578 -2.2499695 0.76986694 -2.2499695 0.925354c0.05770874 0.12036133 0.20193481 0.31344604 0.43267822 0.57925415c0.24038696 0.26080322 0.53845215 0.49905396 0.8942261 0.71469116c0.35577393 0.15048218 0.71151733 0.31848145 1.0672913 0.50405884c0.35577393 0.1855774 0.64901733 0.27835083 0.87979126 0.27835083c0.24038696 0 0.48077393 -0.045135498 0.7211609 -0.1354065l0.25958252 0c0 0.37112427 -0.23556519 0.8475647 -0.70669556 1.4293518c-0.05770874 0.065216064 -0.44232178 0.48147583 -1.1538391 1.2488403c-1.1249695 1.3892517 -2.0720825 2.4073792 -2.8413086 3.0543518c-1.4134216 1.7252808 -2.5335999 3.1496277 -3.3605042 4.2730713c-0.8269043 1.1234436 -1.3269043 1.825592 -1.4999695 2.1064453c0 0.24575806 -0.35577393 0.58428955 -1.0672913 1.015625c-0.35577393 0.12036133 -0.5817261 0.25076294 -0.67788696 0.39120483c-0.086517334 0.14041138 -0.12979126 0.24072266 -0.12979126 0.30090332l-0.43270874 0.23321533c0 0.090270996 -0.23556519 0.1354065 -0.70669556 0.1354065l0 0.6470032c-0.06732178 0.18554688 -0.1730957 0.49401855 -0.31732178 0.9253235c-0.14422607 0.43130493 -0.33651733 0.8927307 -0.5769043 1.3842468c-0.2980652 0.5266113 -0.6826782 1.0281372 -1.1538391 1.5046082c-0.47113037 0.47644043 -0.7355652 0.7447815 -0.7932434 0.80496216c-0.17306519 0.21566772 -0.39422607 0.53915405 -0.66345215 0.970459c-0.26922607 0.43133545 -0.49038696 0.7096863 -0.66345215 0.8350525c-0.18267822 0.1855774 -0.40863037 0.41629028 -0.67785645 0.6921387c-0.25961304 0.2758484 -0.3894348 0.46139526 -0.3894348 0.55670166c0 0.090270996 -0.076934814 0.22817993 -0.23077393 0.41375732c-0.14422607 0.1855774 -0.21633911 0.34106445 -0.21633911 0.46643066c0.06732178 0.090270996 0.052886963 0.21316528 -0.043273926 0.36862183c-0.086517334 0.15548706 -0.12979126 0.30844116 -0.12979126 0.45892334c0 0.4012146 -0.057678223 0.60183716 -0.17306519 0.60183716c-0.41345215 0.1855774 -0.6201782 0.49401855 -0.6201782 0.9253235c0 0.21566772 0.07211304 0.39871216 0.21633911 0.54919434c0.15383911 0.15545654 0.34613037 0.23321533 0.5769043 0.23321533c0.057678223 0 0.10095215 0.015045166 0.12979126 0.045135498c0.028869629 0.035095215 0.043273926 0.09777832 0.043273926 0.18807983c0 0.15545654 0.07211304 0.27835083 0.21633911 0.36862183c0.15383911 0.09527588 0.35095215 0.14294434 0.5913391 0.14294434c0.21783447 0.028015137 0.43615723 0.042022705 0.6549072 0.042022705c0.4861145 0 0.97454834 -0.06918335 1.465271 -0.20755005c0.71151733 -0.20059204 1.0672913 -0.4237976 1.0672913 -0.66955566c-0.05770874 -0.090270996 0.07211304 -0.2432251 0.3894043 -0.45889282c0.3269043 -0.21566772 0.55285645 -0.43133545 0.67788696 -0.64697266c0.17306519 -0.40124512 0.25958252 -0.8024597 0.25958252 -1.2037048c0 -0.12536621 0.043273926 -0.25576782 0.12982178 -0.39117432c0.08654785 -0.1404419 0.12979126 -0.25579834 0.12979126 -0.34606934l0 -0.09780884c0.2980957 0 0.47595215 -0.052642822 0.5336609 -0.15795898c0.057678223 -0.11035156 0.08654785 -0.3486023 0.08654785 -0.71469116c0 -0.065216064 0.13461304 -0.29592896 0.4038391 -0.6921387c0.26919556 -0.4012146 0.46151733 -0.7572937 0.5769043 -1.0682678l1.5144043 -1.7077332c0.17306519 0 0.30285645 -0.045135498 0.3894043 -0.1354065c0.08654785 -0.0953064 0.14422607 -0.24325562 0.17306519 -0.44384766c0.038482666 -0.20062256 0.05770874 -0.33102417 0.05770874 -0.39120483c0.47113037 -0.586792 0.8076782 -0.9328613 1.0095825 -1.0381775c0.21154785 -0.11035156 0.6682739 -0.16549683 1.3701782 -0.16549683l0.8942261 -0.045166016c0.41345215 0 0.7211304 0.07775879 0.9230652 0.23321533c0.21151733 0.15048218 0.4663086 0.519104 0.7644043 1.105896c1.2980347 1.6350098 2.918213 3.09198 4.860504 4.37088c1.9518738 1.2789307 4.0335693 2.2569275 6.2450867 2.9339905c1.874054 0.57128906 3.6522827 0.8569031 5.3346863 0.8569031c0.31155396 0 0.619812 -0.009765625 0.9248047 -0.02935791c1.0 -0.03012085 1.7932434 -0.30593872 2.3797607 -0.82754517c0.5961609 -0.5266113 0.8942261 -1.0958557 0.8942261 -1.7077332l-0.17306519 -0.9253235c-0.05770874 0 -0.25 -0.030090332 -0.5769043 -0.090270996c-0.3269348 -0.065216064 -0.6682739 -0.09780884 -1.0240479 -0.09780884c-1.2403564 0.060180664 -1.8605347 0.1529541 -1.8605347 0.27835083c0.032226562 0.12042236 -0.101989746 0.18063354 -0.4026184 0.18063354c-0.23770142 0 -0.57943726 -0.037628174 -1.025238 -0.11291504c-1.0 -0.17053223 -2.0865173 -0.4564209 -3.259552 -0.8576355c-0.35577393 -0.24575806 -0.75479126 -0.43634033 -1.197113 -0.5717468c-0.44229126 -0.1404419 -0.7836304 -0.21066284 -1.0240173 -0.21066284c-0.17306519 0 -0.9711304 -0.5541992 -2.3941956 -1.6625671c-1.4134216 -1.1083984 -2.2980347 -1.9259033 -2.6538086 -2.4525146l-0.17306519 -0.8802185c0 -0.24572754 0.20672607 -0.5692444 0.6201782 -0.970459c0.1730957 -0.15045166 0.3605652 -0.2482605 0.5625 -0.293396c0.21151733 -0.0501709 0.55285645 -0.07522583 1.0240173 -0.07522583c0.6538391 -0.030090332 1.9807434 -0.35357666 3.980713 -0.9704895c2.0095825 -0.6168823 3.0143738 -0.970459 3.0143738 -1.06073l0.8076782 0c0.5288391 0 1.5144043 -0.39120483 2.956665 -1.173584c1.4519043 -0.78741455 2.8701477 -1.7052307 4.2547607 -2.7534485c1.3941956 -1.0482178 2.355713 -1.9434509 2.884552 -2.68573c0.47113037 -0.8927307 0.7067261 -1.7854614 0.7067261 -2.6781921c0 -1.2337646 -0.35095215 -2.189209 -1.052887 -2.866272c-1.0095825 -1.0482178 -2.447052 -1.9885864 -4.3124084 -2.8211365c-1.8557434 -0.83255005 -3.730713 -1.3566589 -5.6249084 -1.5723267c-2.2403564 -0.2758484 -4.187439 -0.41375732 -5.8412476 -0.41375732zm-32.43567 -0.41375732c-1.5384369 0 -2.9278412 0.030090332 -4.1681976 0.090270996c-1.2403717 0.060180664 -2.0336304 0.1529541 -2.379776 0.27835083c-1.5384369 0.060180664 -3.168213 0.21566772 -4.8893433 0.46643066c-1.7115021 0.24575806 -3.115326 0.5065613 -4.2114716 0.78237915c-1.0865173 0.2758484 -1.5384216 0.5065613 -1.3557434 0.6921387c-0.65382385 0.37112427 -1.2740173 0.9253235 -1.8605347 1.6625977c-0.48077393 1.1083679 -2.6105347 3.4053955 -6.389328 6.891083c-0.23075867 0.36611938 -0.5528717 0.6896057 -0.96632385 0.970459c-0.41345215 0.2758484 -0.6538391 0.45892334 -0.72114563 0.54919434c0 0.25076294 -0.44230652 0.75982666 -1.3269043 1.5271912c-0.23075867 0.2758484 -0.37979126 0.5215759 -0.44709778 0.73724365c-0.05769348 0.21566772 -0.08654785 0.35610962 -0.08654785 0.42129517c-0.47114563 0.73724365 -0.8220978 1.1535339 -1.0528564 1.2488098c-0.24038696 0.120391846 -0.41827393 0.25830078 -0.53364563 0.41378784c-0.11538696 0.15545654 -0.26441956 0.39620972 -0.44711304 0.7221985c-0.17308044 0.3209839 -0.28845215 0.57424927 -0.34614563 0.75982666l-0.63461304 1.7077332c-0.28845215 0 -0.62498474 0.28585815 -1.0095978 0.8576355c-0.38461304 0.5667114 -0.72595215 1.2513123 -1.0240173 2.053772c-0.8845978 1.7553711 -1.3269043 3.1722107 -1.3269043 4.250519c0 0.83255005 0.25 1.5271606 0.74998474 2.0838928c0.5 0.55166626 1.3124847 1.0431824 2.4374695 1.4744873c1.3653564 0.5567322 2.918213 0.91781616 4.6585693 1.0833435c1.7403564 0.17050171 3.999939 0.25576782 6.7787323 0.25576782c1.8269043 0 3.2403412 -0.07772827 4.240326 -0.23321533c1.0095978 -0.15045166 2.7547607 -0.5040283 5.235489 -1.06073c3.490326 -0.70718384 5.749893 -1.1911621 6.7787323 -1.4519653c1.0384369 -0.26080322 1.557663 -0.5466614 1.557663 -0.8576355c0.05769348 -0.12036133 -0.32691956 -0.42630005 -1.1538239 -0.91778564c-0.82691956 -0.496521 -1.3317108 -0.7447815 -1.5144043 -0.7447815c-0.7019043 0 -1.2884369 0.17050171 -1.7595825 0.51156616c-0.35575867 0 -0.78845215 0.030090332 -1.2980499 0.090270996c-0.5 0.060180664 -0.9567261 0.10531616 -1.3701782 0.1354065c-0.35575867 0.0953064 -1.0192108 0.26583862 -1.9903564 0.51156616c-0.9711304 0.24575806 -1.9326477 0.5065613 -2.8845673 0.78240967c-2.7691803 0.37112427 -5.42778 0.55670166 -7.975815 0.55670166c-1.3557587 0 -2.533615 -0.045135498 -3.5335999 -0.1354065c-1.2403717 -0.2808838 -2.1153564 -0.5817871 -2.6249542 -0.902771c-0.5 -0.32598877 -0.75 -0.7046509 -0.75 -1.1359863c0 -0.21566772 0.17788696 -0.69210815 0.53364563 -1.4293823c0.4711609 -1.4494324 1.0 -2.6731873 1.5865173 -3.6712341c0.59614563 -1.0030823 1.3942108 -2.0914001 2.3941956 -3.2649841c0.65382385 -0.7673645 1.1874695 -1.4519653 1.6009369 -2.0538025c0.41345215 -0.60183716 0.66345215 -0.9253235 0.74998474 -0.970459c0.013427734 -0.007019043 0.028015137 -0.010528564 0.043762207 -0.010528564c0.08570862 0 0.20573425 0.1038208 0.3600769 0.31143188c0.0605011 0.00881958 0.15231323 0.013214111 0.27540588 0.013214111c0.71810913 0 2.5012817 -0.14984131 5.3495026 -0.44955444c3.3364716 -0.3560791 6.5383453 -0.7497864 9.605606 -1.1810913c3.0768738 -0.43133545 4.87973 -0.78741455 5.4085693 -1.0682983c0.48075867 -0.090270996 0.7211304 -0.2432251 0.7211304 -0.45889282c0 -0.15548706 -0.16345215 -0.30093384 -0.4903717 -0.43634033c-0.32691956 -0.14041138 -0.81729126 -0.24072266 -1.4711304 -0.30090332c-0.7019043 -0.21566772 -1.4663239 -0.32351685 -2.2932281 -0.32351685c-0.47114563 0 -1.0047913 0.045166016 -1.6009369 0.13543701c-1.2403564 0 -3.177826 0.07019043 -5.8124084 0.21063232c-2.6249542 0.1354065 -4.850876 0.28085327 -6.677765 0.43634033c-0.35577393 -0.060180664 -0.53364563 -0.21316528 -0.53364563 -0.45889282c0 -0.31097412 0.38461304 -0.74227905 1.1538239 -1.2939758c0.8845978 -0.64697266 1.504776 -1.1234436 1.8605499 -1.4293823c0.35575867 -0.3109436 0.53364563 -0.60684204 0.53364563 -0.88772583c0.05769348 -0.2156372 0.99998474 -1.1159058 2.8268738 -2.7007446c1.8365021 -1.5848694 2.8701477 -2.3772888 3.1009064 -2.3772888c0.18269348 0 0.5673065 -0.015045166 1.1538239 -0.045135498c0.59614563 -0.035125732 1.2451782 -0.112854004 1.9470825 -0.23321533c0.48077393 0 1.2788239 -0.04763794 2.3941956 -0.14294434c3.0768738 -0.2758484 5.70665 -0.41375732 7.8892975 -0.41375732c2.5960999 0 4.557617 -0.015045166 5.8845215 -0.045135498c1.3365173 -0.030090332 2.0047607 -0.12289429 2.0047607 -0.27835083c0 -0.090270996 -0.09133911 -0.29589844 -0.27401733 -0.6168823c-0.1730957 -0.3260193 -0.4375 -0.5817871 -0.7932739 -0.7673645c-0.23074341 -0.065216064 -0.61535645 -0.16549683 -1.1538086 -0.30093384c-0.5288391 -0.14041138 -1.134613 -0.26330566 -1.8172913 -0.36862183c-0.6730652 -0.110321045 -1.4855499 -0.16549683 -2.4374542 -0.16549683c-1.8845825 -0.060180664 -3.3605194 -0.090270996 -4.4278107 -0.090270996zm-133.27367 -0.51156616c-0.99998474 0 -2.653801 0.3560791 -4.9614563 1.0682678c-1.7692032 0.43130493 -3.379753 0.96295166 -4.83165 1.5948792c-1.4422836 0.6269226 -3.4374466 1.6199646 -5.9854813 2.979126c-1.8845825 1.3240356 -3.5960922 2.7408752 -5.134529 4.250519c-1.5384369 1.509613 -3.105713 3.5282898 -4.7018433 6.0560303c-0.28845978 0.7723694 -0.78845215 1.7277832 -1.4999771 2.866272c-0.29807281 0.52160645 -0.4471054 0.8300476 -0.4471054 0.925354c0.057685852 0.060180664 0.07211304 0.21313477 0.043266296 0.45889282c-0.02884674 0.24575806 -0.15865326 0.43133545 -0.38941956 0.55670166c-0.2980652 0.7673645 -0.596138 1.8005066 -0.8942108 3.0994873c-0.28845978 1.2939758 -0.43268585 2.3722534 -0.43268585 3.2348938c0 0.39624023 0.02884674 0.6720886 0.08653259 0.82754517c0.11538696 0.7121887 0.49518585 1.3065186 1.1394043 1.782959c0.6538391 0.47647095 2.0143967 1.1309509 4.081665 1.963501c1.7115097 0.6470032 3.6008987 0.9704895 5.6681747 0.9704895c3.8460846 0 7.9373627 -0.98553467 12.273834 -2.956543c4.3460846 -1.9760742 8.115257 -4.596588 11.307503 -7.8615723c2.769188 -2.372284 4.6874237 -4.3433228 5.754715 -5.9131165c1.0672913 -1.5748291 1.6009369 -3.13208 1.6009369 -4.671814c0 -0.9529114 -0.26922607 -2.369751 -0.8076782 -4.250519c-0.7596054 -2.1565857 -1.9711304 -3.7514648 -3.6345596 -4.7846375c-1.6538162 -1.0331726 -4.1345444 -1.7327881 -7.4421844 -2.098938c-0.34614563 -0.06518555 -0.6105652 -0.09777832 -0.79325104 -0.09777832z" fill-rule="evenodd"/></g></svg>